<svg width="23" height="18" viewBox="0 0 23 18" fill="none" xmlns="http://www.w3.org/2000/svg">
<path d="M19.5004 1.93577C19.494 1.92375 19.4834 1.91433 19.4705 1.90921C17.9793 1.24547 16.4057 0.772172 14.7889 0.501161C14.7742 0.498512 14.7591 0.500423 14.7456 0.506622C14.7321 0.512822 14.7209 0.522994 14.7137 0.535692C14.4994 0.91299 14.3049 1.30054 14.1309 1.69686C12.3881 1.44022 10.6154 1.44022 8.87271 1.69686C8.69753 1.29953 8.4999 0.911888 8.28069 0.535692C8.27317 0.52327 8.26197 0.513332 8.24855 0.507173C8.23512 0.501014 8.2201 0.498919 8.20543 0.501161C6.58853 0.771603 5.01476 1.24494 3.52374 1.90924C3.51098 1.91449 3.50021 1.92346 3.49292 1.9349C0.51116 6.25465 -0.305656 10.4682 0.0950459 14.6296C0.0961732 14.6398 0.0994031 14.6496 0.104544 14.6586C0.109684 14.6676 0.116631 14.6754 0.124969 14.6817C1.86122 15.9289 3.80324 16.8808 5.86814 17.497C5.88269 17.5012 5.89821 17.501 5.91264 17.4964C5.92707 17.4918 5.9397 17.4831 5.94884 17.4713C6.39234 16.8859 6.78531 16.266 7.12376 15.6179C7.12841 15.609 7.13107 15.5993 7.13155 15.5893C7.13204 15.5794 7.13034 15.5694 7.12657 15.5601C7.12281 15.5509 7.11706 15.5425 7.1097 15.5355C7.10235 15.5285 7.09355 15.5231 7.0839 15.5197C6.46421 15.2897 5.86428 15.0124 5.28974 14.6905C5.2793 14.6845 5.27054 14.6762 5.26422 14.6661C5.2579 14.6561 5.25422 14.6448 5.2535 14.633C5.25279 14.6213 5.25506 14.6096 5.26012 14.5989C5.26517 14.5883 5.27286 14.579 5.2825 14.5719C5.40306 14.4842 5.52369 14.3931 5.63881 14.301C5.64904 14.2929 5.66141 14.2876 5.67454 14.2859C5.68767 14.2842 5.70104 14.2861 5.71313 14.2913C9.4772 15.9578 13.5523 15.9578 17.2718 14.2913C17.284 14.2857 17.2975 14.2836 17.3108 14.2852C17.3241 14.2867 17.3367 14.2919 17.3471 14.3002C17.4623 14.3922 17.5829 14.4842 17.7043 14.5719C17.714 14.5789 17.7218 14.5881 17.7269 14.5988C17.732 14.6094 17.7344 14.6211 17.7338 14.6328C17.7331 14.6445 17.7295 14.6559 17.7233 14.666C17.7171 14.676 17.7084 14.6844 17.698 14.6905C17.1247 15.0151 16.5243 15.2922 15.9029 15.5188C15.8933 15.5224 15.8845 15.5279 15.8772 15.535C15.8699 15.5421 15.8642 15.5505 15.8605 15.5599C15.8568 15.5692 15.8552 15.5792 15.8558 15.5892C15.8564 15.5992 15.8591 15.609 15.8638 15.6179C16.2079 16.2624 16.6003 16.8815 17.0379 17.4703C17.0467 17.4824 17.0593 17.4914 17.0738 17.4962C17.0883 17.501 17.1039 17.5012 17.1185 17.4968C19.1872 16.8828 21.1326 15.9308 22.871 14.6817C22.8795 14.6758 22.8865 14.6681 22.8917 14.6592C22.8968 14.6504 22.9 14.6406 22.9009 14.6304C23.3806 9.81946 22.0978 5.64045 19.5004 1.93577ZM7.68589 12.0957C6.55263 12.0957 5.61886 11.0868 5.61886 9.84781C5.61886 8.60878 6.53452 7.59982 7.68589 7.59982C8.84626 7.59982 9.771 8.61755 9.75289 9.84773C9.75289 11.0868 8.83719 12.0957 7.68589 12.0957ZM15.3283 12.0957C14.1951 12.0957 13.2613 11.0868 13.2613 9.84781C13.2613 8.60878 14.177 7.59982 15.3283 7.59982C16.4888 7.59982 17.4135 8.61755 17.3954 9.84773C17.3954 11.0868 16.4888 12.0957 15.3283 12.0957Z" fill="#CDCDCD"/>
</svg>
