<svg width="23" height="23" viewBox="0 0 23 23" fill="none" xmlns="http://www.w3.org/2000/svg">
<path d="M3.24881 17.6231C4.55122 17.0311 5.97202 16.6364 7.47177 16.3601C7.1955 15.0972 7.03763 13.7948 6.99816 12.4529H0.565063C0.683464 14.5052 1.3544 16.3601 2.45947 17.9388L3.24881 17.6231Z" fill="#CDCDCD"/>
<path d="M3.76189 18.886L3.28829 19.0833C5.02483 21.0567 7.47178 22.3591 10.195 22.6748L10.0766 22.517C9.08992 21.1751 8.30058 19.5175 7.78751 17.702C6.32724 17.9388 4.98536 18.3335 3.76189 18.886Z" fill="#CDCDCD"/>
<path d="M7.74805 5.98033C8.22166 4.28325 8.93206 2.70458 9.8398 1.40217L10.195 0.92857C7.43232 1.24431 5.02484 2.58618 3.24883 4.55952L3.68297 4.75686C4.94591 5.30939 6.32725 5.74353 7.74805 5.98033Z" fill="#CDCDCD"/>
<path d="M7.4323 7.28274C5.89309 7.00647 4.47228 6.57233 3.13041 5.98033L2.42001 5.66459C1.3544 7.24327 0.683464 9.13768 0.565063 11.1505H6.99816C7.03763 9.80861 7.15603 8.50621 7.4323 7.28274Z" fill="#CDCDCD"/>
<path d="M19.5092 19.2017L19.2329 19.0044C17.891 18.3729 16.3913 17.9388 14.8126 17.6625C14.2995 19.478 13.5102 21.1356 12.5235 22.4775L12.3657 22.7143C15.2073 22.4775 17.6937 21.1751 19.5092 19.2017Z" fill="#CDCDCD"/>
<path d="M19.2724 4.63846L19.5881 4.48059C17.7726 2.46778 15.2467 1.16537 12.4051 0.92857L12.7603 1.44164C13.6681 2.74405 14.339 4.32272 14.8521 6.0198C16.4307 5.74353 17.9305 5.26993 19.2724 4.63846Z" fill="#CDCDCD"/>
<path d="M8.30056 11.111H14.2601C14.2206 9.84808 14.0627 8.62461 13.8259 7.48007C12.9971 7.55901 12.1683 7.63794 11.3395 7.63794C10.4712 7.63794 9.60297 7.59847 8.77416 7.48007C8.4979 8.62461 8.34003 9.88755 8.30056 11.111Z" fill="#CDCDCD"/>
<path d="M20.4169 5.50673L19.8644 5.82246C18.4436 6.4934 16.8254 7.00647 15.1678 7.28274C15.4441 8.50621 15.5625 9.80862 15.6019 11.111H22.3902C22.2718 9.05875 21.5614 7.12487 20.4169 5.50673Z" fill="#CDCDCD"/>
<path d="M19.9038 17.8599L20.3774 18.1756C21.5614 16.5574 22.2718 14.5841 22.3902 12.4924H15.6019C15.5625 13.8342 15.4046 15.1366 15.1283 16.3996C16.8254 16.6758 18.4041 17.1889 19.8249 17.8599H19.9038Z" fill="#CDCDCD"/>
<path d="M11.3 1.67844L10.9054 2.19151C10.116 3.29658 9.52403 4.67792 9.0899 6.17766C9.83977 6.25659 10.5896 6.29606 11.3395 6.29606C12.0894 6.29606 12.7998 6.25659 13.5102 6.17766C13.0761 4.67792 12.4446 3.29658 11.6552 2.15204L11.3 1.67844Z" fill="#CDCDCD"/>
<path d="M11.3 21.9249L11.4579 21.7276C12.3262 20.5436 12.9971 19.0833 13.4707 17.5047C12.7603 17.4257 12.0499 17.3863 11.3395 17.3863C10.5896 17.3863 9.83976 17.4257 9.12936 17.5047C9.60296 19.0833 10.2739 20.5436 11.1422 21.6881L11.3 21.9249Z" fill="#CDCDCD"/>
<path d="M11.3395 16.0444C12.1683 16.0444 12.9971 16.0838 13.8259 16.2022C14.1022 15.0182 14.2206 13.7553 14.2601 12.4924H8.30056C8.34003 13.7948 8.4979 15.0182 8.7347 16.2022C9.60297 16.0838 10.4712 16.0444 11.3395 16.0444Z" fill="#CDCDCD"/>
</svg>
