<?xml version="1.0" encoding="utf-8"?>
<!-- Generator: Adobe Illustrator 25.4.1, SVG Export Plug-In . SVG Version: 6.00 Build 0)  -->
<svg version="1.1" id="Poppins_Bold" xmlns="http://www.w3.org/2000/svg" xmlns:xlink="http://www.w3.org/1999/xlink" x="0px"
	 y="0px" viewBox="0 0 1080 720" style="enable-background:new 0 0 1080 720;" xml:space="preserve">
<style type="text/css">
	.st0{display:none;}
	.st1{display:none;fill:#FFFFFF;}
	.st2{fill:url(#SVGID_1_);}
	.st3{fill:url(#SVGID_00000159459605609761799140000017706802719549102486_);}
	.st4{fill:url(#SVGID_00000174603757717521984710000013370767497438672795_);}
	.st5{fill:url(#SVGID_00000014620055275482351450000003310761093848282807_);}
	.st6{fill:url(#SVGID_00000036234919127492620430000006363744274284470669_);}
	.st7{fill:url(#SVGID_00000178173521454379855650000013337650018174924186_);}
	.st8{fill:url(#SVGID_00000036934118411714687890000016422635635782410169_);}
	.st9{fill:url(#SVGID_00000130605879721784045030000009949221998522715028_);}
	.st10{fill:url(#SVGID_00000040574054923562091810000003490132836616492432_);}
	.st11{fill:url(#SVGID_00000111155063782310487290000014473061097530783666_);}
	.st12{fill:url(#SVGID_00000123410883944685701290000005191502871131211411_);}
	.st13{fill:url(#SVGID_00000005984392126853415620000004112235817716005276_);}
	.st14{fill:url(#SVGID_00000085241142785469484030000006875491306784301470_);}
	.st15{fill:url(#SVGID_00000163780029147076751510000008287344175446022068_);}
	.st16{fill:url(#SVGID_00000048460415847908956640000007885062806672079292_);}
	.st17{fill:url(#SVGID_00000111914019939845252600000001442972615855711422_);}
	.st18{fill:url(#SVGID_00000003789333409850714910000009887992492854948236_);}
	.st19{fill:url(#SVGID_00000108988888608284355830000015556177809938187423_);}
	.st20{fill:url(#SVGID_00000101078865485806496570000008605999861577535903_);}
	.st21{fill:url(#SVGID_00000117635698316796234140000003436272644629737606_);}
	.st22{fill:url(#SVGID_00000114073016838715305840000014062046217955898518_);}
	.st23{fill:url(#SVGID_00000158026132364242352560000009210281888438846090_);}
	.st24{fill:url(#SVGID_00000072260855872263090120000000502593596237956521_);}
	.st25{fill:url(#SVGID_00000144331931297275207430000000452308351354820799_);}
	.st26{fill:url(#SVGID_00000105417020262236206630000006933898934523104426_);}
	.st27{fill:url(#SVGID_00000168795653797298928490000010034423147043396992_);}
	.st28{fill:url(#SVGID_00000055692711966440782660000006855327767079436165_);}
	.st29{fill:url(#SVGID_00000128447217404853012110000016086122418102811272_);}
	.st30{fill:#FFFFFF;}
	.st31{fill:#B2B1B1;}
	.st32{fill:url(#SVGID_00000168101230743660767300000010232955928856315789_);}
	.st33{fill:url(#SVGID_00000129900196208342081330000014811746937322121145_);}
	.st34{fill:url(#SVGID_00000067215559925864961430000009697816208429518008_);}
	.st35{fill:url(#SVGID_00000039834818123642564020000008087442097698210707_);}
	.st36{fill:url(#SVGID_00000091734344493485346530000013906804624927073450_);}
	.st37{fill:url(#SVGID_00000028290851306815597800000011957801257056700861_);}
	.st38{fill:url(#SVGID_00000067211069336908154200000011358692239407237278_);}
	.st39{fill:url(#SVGID_00000075875702393774982830000005785372654984722869_);}
	.st40{fill:url(#SVGID_00000095306513794110711340000002427518751537856400_);}
	.st41{fill:url(#SVGID_00000060730130862683492350000004980729822179041698_);}
	.st42{fill:url(#SVGID_00000169553897098798139400000009396732683099485329_);}
	.st43{fill:url(#SVGID_00000083075066543688064990000006255397085641785279_);}
	.st44{fill:url(#SVGID_00000008848856377226212920000012581672426173203584_);}
	.st45{fill:url(#SVGID_00000071551873519786306600000012807464675709704859_);}
	.st46{fill:url(#SVGID_00000024003197005658795250000005838008789339247271_);}
	.st47{fill:url(#SVGID_00000100356502852552173560000014905710318270497165_);}
	.st48{fill:url(#SVGID_00000114066348240326109200000011139356812622708358_);}
	.st49{fill:url(#SVGID_00000163758945364802844110000017606101450033692568_);}
	.st50{fill:url(#SVGID_00000102545059911537968700000016135411346082395023_);}
	.st51{fill:url(#SVGID_00000181079036696667642280000000152342318738894516_);}
	.st52{fill:#69CC69;}
	.st53{fill:url(#SVGID_00000010991913566958241680000018189062874653706932_);}
	.st54{fill:url(#SVGID_00000164510826129912836320000016211471604957190790_);}
	.st55{fill:url(#SVGID_00000016068082158737294290000016048179361757695113_);}
	.st56{fill:url(#SVGID_00000097493708584447808580000008304667168638477456_);}
	.st57{fill:url(#SVGID_00000098921808114454134310000017222299070588935063_);}
	.st58{fill:url(#SVGID_00000053507842659106026400000000272963708995956670_);}
	.st59{fill:url(#SVGID_00000103266452636745561930000012061828362738758832_);}
	.st60{fill:url(#SVGID_00000097465872914186833790000015865646393001594516_);}
	.st61{fill:url(#SVGID_00000051381158914961201840000003234037239107901114_);}
	.st62{fill:url(#SVGID_00000070088771530399265770000000284782655567302539_);}
	.st63{fill:url(#SVGID_00000182505288798107391350000011410728082751075753_);}
	.st64{fill:url(#SVGID_00000062897215392078676310000012683631513660527282_);}
	.st65{fill:url(#SVGID_00000022552216862082644010000001636933447735345544_);}
	.st66{fill:url(#SVGID_00000113317292959568195570000011813333428263107241_);}
	.st67{fill:url(#SVGID_00000020397588173507188610000017667144521431496101_);}
	.st68{fill:url(#SVGID_00000060012711788348999920000000938108634093996984_);}
	.st69{fill:url(#SVGID_00000070115244482978188240000005187598497358109583_);}
	.st70{fill:url(#SVGID_00000083056683099014755640000008635937112569744780_);}
	.st71{fill:url(#SVGID_00000175290940196904751010000012906649077719037832_);}
	.st72{fill:url(#SVGID_00000060723033748046589040000016424294348441750697_);}
	.st73{fill:url(#SVGID_00000080177892217997165640000017368347331712175021_);}
	.st74{fill:url(#SVGID_00000165195489673830455670000006643462325530088605_);}
	.st75{fill:url(#SVGID_00000049190275159247364470000016793942256386918309_);}
	.st76{fill:#B2A1A1;}
	.st77{fill:url(#SVGID_00000155126834993388796510000005531406839636177334_);}
	.st78{fill:url(#SVGID_00000126318713295237288770000000332403712333499327_);}
	.st79{fill:#C2B4B4;}
	.st80{fill:url(#SVGID_00000093862321792559036060000003728253978749490563_);}
	.st81{fill:url(#SVGID_00000106850836240881910420000010202030942065512105_);}
	.st82{fill:url(#SVGID_00000178175773762214112880000009859252120164282770_);}
	.st83{fill:url(#SVGID_00000101798669362367426200000010349834600018625706_);}
	.st84{fill:url(#SVGID_00000124883657790508014060000010843661313012479626_);}
	.st85{fill:url(#SVGID_00000033362278906777121320000000852726280744507060_);}
	.st86{fill:url(#SVGID_00000165213869350193566700000017214614719335700096_);}
</style>
<rect class="st0" width="1080" height="720"/>
<rect class="st1" width="1080" height="720"/>
<g>
	<g>
		<linearGradient id="SVGID_1_" gradientUnits="userSpaceOnUse" x1="261.408" y1="602.9709" x2="261.408" y2="518.5736">
			<stop  offset="0" style="stop-color:#FFFFC3"/>
			<stop  offset="0" style="stop-color:#C59528"/>
			<stop  offset="0.2279" style="stop-color:#FFEEA9"/>
			<stop  offset="0.414" style="stop-color:#FECE61"/>
			<stop  offset="0.586" style="stop-color:#FFFFD0"/>
			<stop  offset="0.7721" style="stop-color:#C2A262"/>
			<stop  offset="1" style="stop-color:#D4B578"/>
		</linearGradient>
		<path class="st2" d="M224.44,559.07c0-23.99,20.2-44.3,44.14-44.3c11.07,0.16,20.88,4.54,29.79,13.13l-9.86,13.45
			c-5.8-5.7-12.76-9.18-20.09-9.18c-13.66,0-26.68,12.13-26.68,27c0,15.13,13.5,26.84,26.63,26.84c7.8,0,14.55-4.17,20.2-9.7
			l9.81,13.82c-7.49,7.44-16.61,13.03-29.48,13.03C244.37,603.15,224.44,582.96,224.44,559.07z"/>
		
			<linearGradient id="SVGID_00000172436578426440714990000007246538143853570729_" gradientUnits="userSpaceOnUse" x1="340.5159" y1="602.9709" x2="340.5159" y2="518.5736">
			<stop  offset="0" style="stop-color:#FFFFC3"/>
			<stop  offset="0" style="stop-color:#C59528"/>
			<stop  offset="0.2279" style="stop-color:#FFEEA9"/>
			<stop  offset="0.414" style="stop-color:#FECE61"/>
			<stop  offset="0.586" style="stop-color:#FFFFD0"/>
			<stop  offset="0.7721" style="stop-color:#C2A262"/>
			<stop  offset="1" style="stop-color:#D4B578"/>
		</linearGradient>
		<path style="fill:url(#SVGID_00000172436578426440714990000007246538143853570729_);" d="M352.17,601.52l-27.05-40.18v40.18
			h-17.09l-0.05-85.01h27.74c15.87,0,28.9,12.23,28.9,27.53c0,10.92-6.59,20.46-15.71,23.68l24.15,33.8H352.17z M325.06,554.8
			l10.97,0.05c5.8,0.05,10.97-4.64,10.97-10.71s-5.22-10.71-10.97-10.71h-10.97V554.8z"/>
		
			<linearGradient id="SVGID_00000123405782331220846470000000411473228025359032_" gradientUnits="userSpaceOnUse" x1="421.7063" y1="602.9709" x2="421.7063" y2="518.5736">
			<stop  offset="0" style="stop-color:#FFFFC3"/>
			<stop  offset="0" style="stop-color:#C59528"/>
			<stop  offset="0.2279" style="stop-color:#FFEEA9"/>
			<stop  offset="0.414" style="stop-color:#FECE61"/>
			<stop  offset="0.586" style="stop-color:#FFFFD0"/>
			<stop  offset="0.7721" style="stop-color:#C2A262"/>
			<stop  offset="1" style="stop-color:#D4B578"/>
		</linearGradient>
		<path style="fill:url(#SVGID_00000123405782331220846470000000411473228025359032_);" d="M377.49,559.12
			c0-24.42,19.88-44.35,44.19-44.35s44.24,19.93,44.24,44.35c0,24.21-19.93,44.03-44.3,44.03
			C397.37,603.15,377.49,583.33,377.49,559.12z M448.63,559.01c0-14.87-12.13-27-27-27c-14.82,0-26.89,12.13-26.89,27
			c0,14.77,12.08,26.84,26.89,26.84C436.5,585.86,448.63,573.78,448.63,559.01z"/>
		
			<linearGradient id="SVGID_00000117651844623661805970000012324193207250201520_" gradientUnits="userSpaceOnUse" x1="510.2815" y1="602.9709" x2="510.2815" y2="518.5736">
			<stop  offset="0" style="stop-color:#FFFFC3"/>
			<stop  offset="0" style="stop-color:#C59528"/>
			<stop  offset="0.2279" style="stop-color:#FFEEA9"/>
			<stop  offset="0.414" style="stop-color:#FECE61"/>
			<stop  offset="0.586" style="stop-color:#FFFFD0"/>
			<stop  offset="0.7721" style="stop-color:#C2A262"/>
			<stop  offset="1" style="stop-color:#D4B578"/>
		</linearGradient>
		<path style="fill:url(#SVGID_00000117651844623661805970000012324193207250201520_);" d="M473.31,559.07
			c0-23.99,20.2-44.3,44.14-44.3c11.07,0.16,20.88,4.54,29.79,13.13l-9.86,13.45c-5.8-5.7-12.76-9.18-20.09-9.18
			c-13.66,0-26.68,12.13-26.68,27c0,15.13,13.5,26.84,26.63,26.84c7.8,0,14.55-4.17,20.2-9.7l9.81,13.82
			c-7.49,7.44-16.61,13.03-29.48,13.03C493.25,603.15,473.31,582.96,473.31,559.07z"/>
		
			<linearGradient id="SVGID_00000114044290676774329980000017004416679050007175_" gradientUnits="userSpaceOnUse" x1="593.7402" y1="602.9709" x2="593.7402" y2="518.5736">
			<stop  offset="0" style="stop-color:#FFFFC3"/>
			<stop  offset="0" style="stop-color:#C59528"/>
			<stop  offset="0.2279" style="stop-color:#FFEEA9"/>
			<stop  offset="0.414" style="stop-color:#FECE61"/>
			<stop  offset="0.586" style="stop-color:#FFFFD0"/>
			<stop  offset="0.7721" style="stop-color:#C2A262"/>
			<stop  offset="1" style="stop-color:#D4B578"/>
		</linearGradient>
		<path style="fill:url(#SVGID_00000114044290676774329980000017004416679050007175_);" d="M549.52,559.12
			c0-24.42,19.88-44.35,44.19-44.35s44.24,19.93,44.24,44.35c0,24.21-19.93,44.03-44.3,44.03
			C569.4,603.15,549.52,583.33,549.52,559.12z M620.66,559.01c0-14.87-12.13-27-27-27c-14.82,0-26.89,12.13-26.89,27
			c0,14.77,12.08,26.84,26.89,26.84C608.53,585.86,620.66,573.78,620.66,559.01z"/>
		
			<linearGradient id="SVGID_00000107575414227764633400000018146076899370205832_" gradientUnits="userSpaceOnUse" x1="678.9143" y1="602.9709" x2="678.9143" y2="518.5736">
			<stop  offset="0" style="stop-color:#FFFFC3"/>
			<stop  offset="0" style="stop-color:#C59528"/>
			<stop  offset="0.2279" style="stop-color:#FFEEA9"/>
			<stop  offset="0.414" style="stop-color:#FECE61"/>
			<stop  offset="0.586" style="stop-color:#FFFFD0"/>
			<stop  offset="0.7721" style="stop-color:#C2A262"/>
			<stop  offset="1" style="stop-color:#D4B578"/>
		</linearGradient>
		<path style="fill:url(#SVGID_00000107575414227764633400000018146076899370205832_);" d="M649.04,516.51h29.85
			c16.45,0,29.9,12.92,29.9,28.74c0,15.77-13.45,28.63-29.9,28.63h-12.76v27.63h-17.09V516.51z M691.7,545.09
			c0-6.43-5.75-11.65-12.81-11.65h-12.76v23.52l12.76,0.05C685.95,557.06,691.7,551.68,691.7,545.09z"/>
		
			<linearGradient id="SVGID_00000068637843846424002800000005391966964829183916_" gradientUnits="userSpaceOnUse" x1="737.1902" y1="602.9709" x2="737.1902" y2="518.5736">
			<stop  offset="0" style="stop-color:#FFFFC3"/>
			<stop  offset="0" style="stop-color:#C59528"/>
			<stop  offset="0.2279" style="stop-color:#FFEEA9"/>
			<stop  offset="0.414" style="stop-color:#FECE61"/>
			<stop  offset="0.586" style="stop-color:#FFFFD0"/>
			<stop  offset="0.7721" style="stop-color:#C2A262"/>
			<stop  offset="1" style="stop-color:#D4B578"/>
		</linearGradient>
		<path style="fill:url(#SVGID_00000068637843846424002800000005391966964829183916_);" d="M754.2,589.65h-34.01l-5.43,11.87h-18.46
			l40.61-87.12h0.53l40.66,87.12h-18.51L754.2,589.65z M747.55,575.1l-10.34-22.73l-10.39,22.73H747.55z"/>
		
			<linearGradient id="SVGID_00000020390676283950343100000004678601474573471929_" gradientUnits="userSpaceOnUse" x1="821.0706" y1="602.9709" x2="821.0706" y2="518.5736">
			<stop  offset="0" style="stop-color:#FFFFC3"/>
			<stop  offset="0" style="stop-color:#C59528"/>
			<stop  offset="0.2279" style="stop-color:#FFEEA9"/>
			<stop  offset="0.414" style="stop-color:#FECE61"/>
			<stop  offset="0.586" style="stop-color:#FFFFD0"/>
			<stop  offset="0.7721" style="stop-color:#C2A262"/>
			<stop  offset="1" style="stop-color:#D4B578"/>
		</linearGradient>
		<path style="fill:url(#SVGID_00000020390676283950343100000004678601474573471929_);" d="M855.56,559.12
			c0,26.37-16.77,42.4-44.24,42.4h-24.73v-84.96l24.73-0.05C838.79,516.46,855.56,532.59,855.56,559.12z M838.31,559.07
			c0-15.93-10.23-25.63-27.05-25.63h-7.65v51.05h7.8C828.14,584.49,838.31,574.89,838.31,559.07z"/>
	</g>
	<g>
		
			<linearGradient id="SVGID_00000046325347983660710930000009645678552857422264_" gradientUnits="userSpaceOnUse" x1="353.4775" y1="303.3691" x2="726.5225" y2="303.3691">
			<stop  offset="0" style="stop-color:#DDBC75"/>
			<stop  offset="0" style="stop-color:#D3A84B"/>
			<stop  offset="0.2279" style="stop-color:#CEAF6F"/>
			<stop  offset="0.414" style="stop-color:#C79D38"/>
			<stop  offset="0.586" style="stop-color:#CBA043"/>
			<stop  offset="0.7721" style="stop-color:#8D5B00"/>
			<stop  offset="1" style="stop-color:#FFEA8E"/>
		</linearGradient>
		<path style="fill:url(#SVGID_00000046325347983660710930000009645678552857422264_);" d="M540,489.89
			c-102.85,0-186.52-83.67-186.52-186.52c0-102.85,83.67-186.52,186.52-186.52s186.52,83.67,186.52,186.52
			C726.52,406.22,642.85,489.89,540,489.89z M540,122.29c-99.85,0-181.08,81.23-181.08,181.08c0,99.85,81.23,181.08,181.08,181.08
			s181.08-81.23,181.08-181.08C721.08,203.52,639.85,122.29,540,122.29z M540,469.48c-91.59,0-166.11-74.52-166.11-166.11
			c0-91.59,74.52-166.11,166.11-166.11s166.11,74.52,166.11,166.11C706.11,394.96,631.59,469.48,540,469.48z M540,142.7
			c-88.59,0-160.67,72.08-160.67,160.67c0,88.59,72.08,160.67,160.67,160.67s160.67-72.08,160.67-160.67
			C700.67,214.78,628.59,142.7,540,142.7z"/>
		
			<linearGradient id="SVGID_00000106128623112987603640000010991542817030192063_" gradientUnits="userSpaceOnUse" x1="356.1989" y1="303.3691" x2="723.8011" y2="303.3691">
			<stop  offset="0" style="stop-color:#FFFEBA"/>
			<stop  offset="0" style="stop-color:#FAD483"/>
			<stop  offset="0.2279" style="stop-color:#EFCB80"/>
			<stop  offset="0.414" style="stop-color:#FFECA8"/>
			<stop  offset="0.586" style="stop-color:#FFECA7"/>
			<stop  offset="0.7721" style="stop-color:#FFFFC9"/>
			<stop  offset="1" style="stop-color:#FFEDAB"/>
		</linearGradient>
		<path style="fill:url(#SVGID_00000106128623112987603640000010991542817030192063_);" d="M540,487.17
			c-101.35,0-183.8-82.45-183.8-183.8s82.45-183.8,183.8-183.8s183.8,82.45,183.8,183.8S641.35,487.17,540,487.17z M540,139.98
			c-90.09,0-163.39,73.3-163.39,163.39S449.91,466.76,540,466.76s163.39-73.3,163.39-163.39S630.09,139.98,540,139.98z"/>
		<g>
			
				<linearGradient id="SVGID_00000077309155564636026320000009235671247843382191_" gradientUnits="userSpaceOnUse" x1="400.0892" y1="329.8092" x2="428.7783" y2="329.8092">
				<stop  offset="0" style="stop-color:#FFFFC3"/>
				<stop  offset="0" style="stop-color:#C59528"/>
				<stop  offset="0.2279" style="stop-color:#FFEEA9"/>
				<stop  offset="0.414" style="stop-color:#FECE61"/>
				<stop  offset="0.586" style="stop-color:#FFFFD0"/>
				<stop  offset="0.7721" style="stop-color:#C2A262"/>
				<stop  offset="1" style="stop-color:#D4B578"/>
			</linearGradient>
			<path style="fill:url(#SVGID_00000077309155564636026320000009235671247843382191_);" d="M417.81,340.86
				c-0.2,0.45-0.73,0.98-1.18,1.07c-4.87,0.97-9.75,1.87-14.63,2.78c-0.59,0.11-1.2,0.12-1.91,0.18
				c4.42-13.22,14.57-23.02,28.69-30.16c-1.42,2.95-2.17,5.96-4,7.99c-4.25,4.73-9.03,8.96-13.55,13.45
				c-0.87,0.86-1.51,1.96-2.25,2.94c1.31-0.05,8.98-3.39,11.75-5.16C419.72,336.39,418.81,338.65,417.81,340.86z"/>
			
				<linearGradient id="SVGID_00000173864856058987133970000007079701498103831227_" gradientUnits="userSpaceOnUse" x1="400.0892" y1="329.8092" x2="428.7783" y2="329.8092">
				<stop  offset="0" style="stop-color:#FFFFC3"/>
				<stop  offset="0" style="stop-color:#C59528"/>
				<stop  offset="0.2279" style="stop-color:#FFEEA9"/>
				<stop  offset="0.414" style="stop-color:#FECE61"/>
				<stop  offset="0.586" style="stop-color:#FFFFD0"/>
				<stop  offset="0.7721" style="stop-color:#C2A262"/>
				<stop  offset="1" style="stop-color:#D4B578"/>
			</linearGradient>
			<path style="fill:url(#SVGID_00000173864856058987133970000007079701498103831227_);" d="M412.62,329.86
				c-3.31,3.71-6.66,7.17-9.31,11.39c-0.72,1.19-1.45,2.38-2.19,3.56c-0.33,0.02-0.67,0.04-1.04,0.08
				c4.42-13.22,14.57-23.02,28.69-30.16c-1.37,2.84-2.11,5.74-3.8,7.76C420.08,322.48,415.99,326.27,412.62,329.86z"/>
			
				<linearGradient id="SVGID_00000113324187291878004750000008424817867700399247_" gradientUnits="userSpaceOnUse" x1="438.9818" y1="270.9257" x2="472.9349" y2="270.9257">
				<stop  offset="0" style="stop-color:#FFFFC3"/>
				<stop  offset="0" style="stop-color:#C59528"/>
				<stop  offset="0.2279" style="stop-color:#FFEEA9"/>
				<stop  offset="0.414" style="stop-color:#FECE61"/>
				<stop  offset="0.586" style="stop-color:#FFFFD0"/>
				<stop  offset="0.7721" style="stop-color:#C2A262"/>
				<stop  offset="1" style="stop-color:#D4B578"/>
			</linearGradient>
			<path style="fill:url(#SVGID_00000113324187291878004750000008424817867700399247_);" d="M455.18,276.47
				c-1.01,1.29-2.36,2.9-3.35,2.7c-4.18-0.83-8.25-2.2-12.85-3.51c5.62-5.76,28.16-14.34,33.95-12.83
				c-4.91,2.99-9.22,6.04-13.92,8.33c-3.13,1.53-11.41,3.56-12,3.9C447.64,275.49,454.56,276.46,455.18,276.47z"/>
			
				<linearGradient id="SVGID_00000116217925838307139050000013701875187636784010_" gradientUnits="userSpaceOnUse" x1="439.0348" y1="269.1341" x2="472.9349" y2="269.1341">
				<stop  offset="0" style="stop-color:#FFFFC3"/>
				<stop  offset="0" style="stop-color:#C59528"/>
				<stop  offset="0.2279" style="stop-color:#FFEEA9"/>
				<stop  offset="0.414" style="stop-color:#FECE61"/>
				<stop  offset="0.586" style="stop-color:#FFFFD0"/>
				<stop  offset="0.7721" style="stop-color:#C2A262"/>
				<stop  offset="1" style="stop-color:#D4B578"/>
			</linearGradient>
			<path style="fill:url(#SVGID_00000116217925838307139050000013701875187636784010_);" d="M459.08,268.07
				c-6.97,1.7-13.66,4.31-20.05,7.54c5.71-5.76,28.13-14.28,33.9-12.77c-2.88,1.76-5.56,3.53-8.24,5.17
				c-0.21-0.11-0.44-0.2-0.68-0.24C462.4,267.51,460.64,267.65,459.08,268.07z"/>
			
				<linearGradient id="SVGID_00000156587477906312763410000011960060233331924126_" gradientUnits="userSpaceOnUse" x1="415.4521" y1="387.0731" x2="433.4168" y2="387.0731">
				<stop  offset="0" style="stop-color:#DDBC75"/>
				<stop  offset="0" style="stop-color:#D3A84B"/>
				<stop  offset="0.2279" style="stop-color:#CEAF6F"/>
				<stop  offset="0.414" style="stop-color:#C79D38"/>
				<stop  offset="0.586" style="stop-color:#CBA043"/>
				<stop  offset="0.7721" style="stop-color:#8D5B00"/>
				<stop  offset="1" style="stop-color:#FFEA8E"/>
			</linearGradient>
			<path style="fill:url(#SVGID_00000156587477906312763410000011960060233331924126_);" d="M422.19,398.46
				c-0.32,0.54-1.41,1.05-2,0.92c-1.76-0.39-3.46-1.1-4.74-1.53c1.55-11.68,8.77-18.93,17.96-24.93
				c-0.03,8.42-2.25,17.21-7.11,28.31c-0.76-0.23-1.53-0.47-2.4-0.74c3.65-5.14,4.79-10.88,6.15-16.56
				c-1.35,1.96-2.28,4.09-3.33,6.17C425.28,392.92,423.8,395.73,422.19,398.46z"/>
			
				<linearGradient id="SVGID_00000096030256608452563710000013911358250889124008_" gradientUnits="userSpaceOnUse" x1="415.4521" y1="386.1615" x2="433.4168" y2="386.1615">
				<stop  offset="0" style="stop-color:#FFFFC3"/>
				<stop  offset="0" style="stop-color:#C59528"/>
				<stop  offset="0.2279" style="stop-color:#FFEEA9"/>
				<stop  offset="0.414" style="stop-color:#FECE61"/>
				<stop  offset="0.586" style="stop-color:#FFFFD0"/>
				<stop  offset="0.7721" style="stop-color:#C2A262"/>
				<stop  offset="1" style="stop-color:#D4B578"/>
			</linearGradient>
			<path style="fill:url(#SVGID_00000096030256608452563710000013911358250889124008_);" d="M415.45,397.85
				c1.55-11.68,8.77-18.93,17.96-24.93c0,0.64-0.02,1.29-0.05,1.93c-0.06,0.07-0.13,0.13-0.18,0.2
				c-6.8,5.73-13.12,15.31-12.24,24.25c-0.28,0.09-0.55,0.12-0.76,0.08C418.42,399,416.73,398.28,415.45,397.85z"/>
			
				<linearGradient id="SVGID_00000005231533708869840790000006182578157109081773_" gradientUnits="userSpaceOnUse" x1="437.0742" y1="313.9546" x2="460.4547" y2="313.9546">
				<stop  offset="0" style="stop-color:#FFFFC3"/>
				<stop  offset="0" style="stop-color:#C59528"/>
				<stop  offset="0.2279" style="stop-color:#FFEEA9"/>
				<stop  offset="0.414" style="stop-color:#FECE61"/>
				<stop  offset="0.586" style="stop-color:#FFFFD0"/>
				<stop  offset="0.7721" style="stop-color:#C2A262"/>
				<stop  offset="1" style="stop-color:#D4B578"/>
			</linearGradient>
			<path style="fill:url(#SVGID_00000005231533708869840790000006182578157109081773_);" d="M437.07,323.71
				c0.14-3.38,2.67-7.93,5.85-10.27c5.32-3.9,10.99-7.18,17.53-9.49c-0.27,0.5-0.41,0.8-0.59,1.07
				c-7.93,11.54-17.27,16.9-17.13,17.13c3.66-1.72,7.33-3.43,10.97-5.13C449.59,322.57,444.09,324.77,437.07,323.71z"/>
			
				<linearGradient id="SVGID_00000080207837735080039090000016112311120123366845_" gradientUnits="userSpaceOnUse" x1="437.0742" y1="313.8673" x2="460.4547" y2="313.8673">
				<stop  offset="0" style="stop-color:#FFFFC3"/>
				<stop  offset="0" style="stop-color:#C59528"/>
				<stop  offset="0.2279" style="stop-color:#FFEEA9"/>
				<stop  offset="0.414" style="stop-color:#FECE61"/>
				<stop  offset="0.586" style="stop-color:#FFFFD0"/>
				<stop  offset="0.7721" style="stop-color:#C2A262"/>
				<stop  offset="1" style="stop-color:#D4B578"/>
			</linearGradient>
			<path style="fill:url(#SVGID_00000080207837735080039090000016112311120123366845_);" d="M437.68,323.79
				c-0.2-0.03-0.4-0.05-0.6-0.08c0.14-3.38,2.67-7.93,5.85-10.27c5.32-3.9,10.99-7.18,17.53-9.49c-0.19,0.34-0.31,0.58-0.43,0.79
				C451.12,309.21,444.31,316.44,437.68,323.79z"/>
			
				<linearGradient id="SVGID_00000104681394696082019840000018126182379455748006_" gradientUnits="userSpaceOnUse" x1="481.5636" y1="266.4111" x2="512.7718" y2="266.4111">
				<stop  offset="0" style="stop-color:#FFFFC3"/>
				<stop  offset="0" style="stop-color:#C59528"/>
				<stop  offset="0.2279" style="stop-color:#FFEEA9"/>
				<stop  offset="0.414" style="stop-color:#FECE61"/>
				<stop  offset="0.586" style="stop-color:#FFFFD0"/>
				<stop  offset="0.7721" style="stop-color:#C2A262"/>
				<stop  offset="1" style="stop-color:#D4B578"/>
			</linearGradient>
			<path style="fill:url(#SVGID_00000104681394696082019840000018126182379455748006_);" d="M503.9,269.18
				c-7.36,2.21-14.74,3.38-22.33,0.43c6.23-7.66,21.12-10.89,31.21-5.51c-7.4,1.36-14.22,2.61-21.05,3.86
				C495.72,269.51,499.78,269.5,503.9,269.18z"/>
			
				<linearGradient id="SVGID_00000090998028161342434820000011059614358056082872_" gradientUnits="userSpaceOnUse" x1="482.1987" y1="265.1638" x2="512.7718" y2="265.1638">
				<stop  offset="0" style="stop-color:#DDBC75"/>
				<stop  offset="0" style="stop-color:#D3A84B"/>
				<stop  offset="0.2279" style="stop-color:#CEAF6F"/>
				<stop  offset="0.414" style="stop-color:#C79D38"/>
				<stop  offset="0.586" style="stop-color:#CBA043"/>
				<stop  offset="0.7721" style="stop-color:#8D5B00"/>
				<stop  offset="1" style="stop-color:#FFEA8E"/>
			</linearGradient>
			<path style="fill:url(#SVGID_00000090998028161342434820000011059614358056082872_);" d="M512.77,264.11
				c-1.84,0.34-3.65,0.67-5.43,1c-5.12-1.05-10.42-1.03-15.49,0.51c-3.18,0.91-6.55,1.87-9.65,3.26
				C488.76,261.76,503.01,258.9,512.77,264.11z"/>
			
				<linearGradient id="SVGID_00000090281405156547442570000006357593368044482487_" gradientUnits="userSpaceOnUse" x1="515.619" y1="377.5623" x2="571.9388" y2="377.5623">
				<stop  offset="0" style="stop-color:#FFFEBA"/>
				<stop  offset="0" style="stop-color:#FAD483"/>
				<stop  offset="0.2279" style="stop-color:#EFCB80"/>
				<stop  offset="0.414" style="stop-color:#FFECA8"/>
				<stop  offset="0.586" style="stop-color:#FFECA7"/>
				<stop  offset="0.7721" style="stop-color:#FFFFC9"/>
				<stop  offset="1" style="stop-color:#FFEDAB"/>
			</linearGradient>
			<path style="fill:url(#SVGID_00000090281405156547442570000006357593368044482487_);" d="M530.04,388.44
				c-3.7-2.07-7.29-4.78-10.07-7.96c-3.56-4.07-4.84-9.33-4.19-14.8c0.17-1.42,0.92-3.58,1.88-3.88c1.3-0.41,3.26,0.31,4.6,1.11
				c5.54,3.29,10.75,7.17,16.45,10.13c10.41,5.41,21.51,5.51,33.22,2.85c-0.77,3.14-1.46,6.01-2.18,8.87
				c-0.1,0.41-0.28,0.89-0.59,1.15c-3.68,3.17-7.64,6.12-12.49,6.92C547.37,394.37,538.3,393.06,530.04,388.44z"/>
			
				<linearGradient id="SVGID_00000059992949361036838430000006252571400029255818_" gradientUnits="userSpaceOnUse" x1="515.619" y1="377.5623" x2="557.8868" y2="377.5623">
				<stop  offset="0" style="stop-color:#FFFFC3"/>
				<stop  offset="0" style="stop-color:#C59528"/>
				<stop  offset="0.2279" style="stop-color:#FFEEA9"/>
				<stop  offset="0.414" style="stop-color:#FECE61"/>
				<stop  offset="0.586" style="stop-color:#FFFFD0"/>
				<stop  offset="0.7721" style="stop-color:#C2A262"/>
				<stop  offset="1" style="stop-color:#D4B578"/>
			</linearGradient>
			<path style="fill:url(#SVGID_00000059992949361036838430000006252571400029255818_);" d="M515.78,365.68
				c0.17-1.42,0.92-3.58,1.88-3.88c1.3-0.41,3.26,0.31,4.6,1.11c5.54,3.29,10.75,7.17,16.45,10.13c0.51,0.27,1.03,0.52,1.55,0.76
				c-0.45-0.14-0.88-0.27-1.29-0.37c-2.36-0.59-11.19-3.77-10.05,1.62c1.89,8.96,11.23,14.83,19.64,16.6
				c1.52,0.32,2.96,0.71,4.53,0.7c1.65,0.12,3.22,0.19,4.79,0.24c-0.4,0.1-0.8,0.18-1.21,0.25c-9.31,1.54-18.38,0.23-26.64-4.4
				c-3.7-2.07-7.29-4.78-10.07-7.96C516.41,376.41,515.13,371.15,515.78,365.68z"/>
			
				<linearGradient id="SVGID_00000149357649780169347470000005206927205648819332_" gradientUnits="userSpaceOnUse" x1="503.0732" y1="410.407" x2="525.8341" y2="410.407">
				<stop  offset="0" style="stop-color:#FFFFC3"/>
				<stop  offset="0" style="stop-color:#C59528"/>
				<stop  offset="0.2279" style="stop-color:#FFEEA9"/>
				<stop  offset="0.414" style="stop-color:#FECE61"/>
				<stop  offset="0.586" style="stop-color:#FFFFD0"/>
				<stop  offset="0.7721" style="stop-color:#C2A262"/>
				<stop  offset="1" style="stop-color:#D4B578"/>
			</linearGradient>
			<path style="fill:url(#SVGID_00000149357649780169347470000005206927205648819332_);" d="M525.83,420.71
				c-3.97-2.48-7.51-2.24-10.87,0.29c-3.21,2.42-2.57,5.67-1.68,8.94c-0.24,0.07-1.55-4.03-1.4-5.05
				c1.02-6.71,0.21-13.14-2.65-19.32c-2.1-4.54-4.11-9.12-6.16-13.67c7.79-2.37,13.51-0.56,14.57,4.57
				c-1.59,0.23-5.66,1.61-5.66,2.06c0.01,0.33,9.85-0.87,9.45,10.84c-1.31-0.15-4.8,0.2-5.24,0.52c0.31,0.38,1.92,1.46,2.35,1.74
				C521.88,413.73,524.86,416.12,525.83,420.71z"/>
			
				<linearGradient id="SVGID_00000007389720994213253140000009884260996536501901_" gradientUnits="userSpaceOnUse" x1="526.9349" y1="408.6794" x2="566.5438" y2="408.6794">
				<stop  offset="0" style="stop-color:#FFFEBA"/>
				<stop  offset="0" style="stop-color:#FAD483"/>
				<stop  offset="0.2279" style="stop-color:#EFCB80"/>
				<stop  offset="0.414" style="stop-color:#FFECA8"/>
				<stop  offset="0.586" style="stop-color:#FFECA7"/>
				<stop  offset="0.7721" style="stop-color:#FFFFC9"/>
				<stop  offset="1" style="stop-color:#FFEDAB"/>
			</linearGradient>
			<path style="fill:url(#SVGID_00000007389720994213253140000009884260996536501901_);" d="M561.01,419.26
				c-1.46,0.49-5.87,1.65-7.29,1.6c-5.99-0.19-14.58-3.21-20.5-4.7c-1.35-0.34-2.95,0.16-3.55-1.87c-0.42-1.43-1.63-2.65-1.99-4.08
				c-0.48-1.92-0.47-3.97-0.7-5.95c-0.28-2.44,1.18-5.07,3.35-5.9c4.15-1.59,8.36-2.32,12.85-1.54c2.83,0.49,5.76,0.55,8.65,0.57
				c4.74,0.03,9.47-0.14,14.61-0.23C567.1,400.9,564.77,418,561.01,419.26z"/>
			
				<linearGradient id="SVGID_00000129920886932022953160000011149080013324224667_" gradientUnits="userSpaceOnUse" x1="549.3431" y1="384.6666" x2="571.9388" y2="384.6666">
				<stop  offset="0" style="stop-color:#FFFFC3"/>
				<stop  offset="0" style="stop-color:#C59528"/>
				<stop  offset="0.2279" style="stop-color:#FFEEA9"/>
				<stop  offset="0.414" style="stop-color:#FECE61"/>
				<stop  offset="0.586" style="stop-color:#FFFFD0"/>
				<stop  offset="0.7721" style="stop-color:#C2A262"/>
				<stop  offset="1" style="stop-color:#D4B578"/>
			</linearGradient>
			<path style="fill:url(#SVGID_00000129920886932022953160000011149080013324224667_);" d="M558.11,389.98
				c4.03-2.46,7.35-8.01,5.52-12.7c2.73-0.28,5.51-0.76,8.31-1.4c-0.77,3.14-1.46,6.01-2.18,8.87c-0.1,0.41-0.28,0.89-0.59,1.15
				c-3.68,3.17-7.64,6.12-12.49,6.92c-2.47,0.41-4.92,0.61-7.34,0.61C552.42,392.67,555.38,391.61,558.11,389.98z"/>
			
				<linearGradient id="SVGID_00000183946082999279523680000017397492854895706011_" gradientUnits="userSpaceOnUse" x1="545.2919" y1="409.0033" x2="566.5438" y2="409.0033">
				<stop  offset="0" style="stop-color:#FFFFC3"/>
				<stop  offset="0" style="stop-color:#C59528"/>
				<stop  offset="0.2279" style="stop-color:#FFEEA9"/>
				<stop  offset="0.414" style="stop-color:#FECE61"/>
				<stop  offset="0.586" style="stop-color:#FFFFD0"/>
				<stop  offset="0.7721" style="stop-color:#C2A262"/>
				<stop  offset="1" style="stop-color:#D4B578"/>
			</linearGradient>
			<path style="fill:url(#SVGID_00000183946082999279523680000017397492854895706011_);" d="M557.65,408.38
				c1.84-3.72,0.53-8.36-2.53-11.01c3.65-0.04,7.36-0.15,11.31-0.22c0.67,3.75-1.66,20.86-5.42,22.11c-1.46,0.49-5.87,1.65-7.29,1.6
				c-2.49-0.08-5.42-0.65-8.43-1.39c0.81-0.45,1.61-0.91,2.4-1.37C551.7,415.74,555.52,412.52,557.65,408.38z"/>
			
				<linearGradient id="SVGID_00000070822300530503705310000012626676010149715596_" gradientUnits="userSpaceOnUse" x1="526.9349" y1="408.6794" x2="563.4443" y2="408.6794">
				<stop  offset="0" style="stop-color:#FFFEBA"/>
				<stop  offset="0" style="stop-color:#FAD483"/>
				<stop  offset="0.2279" style="stop-color:#EFCB80"/>
				<stop  offset="0.414" style="stop-color:#FFECA8"/>
				<stop  offset="0.586" style="stop-color:#FFECA7"/>
				<stop  offset="0.7721" style="stop-color:#FFFFC9"/>
				<stop  offset="1" style="stop-color:#FFEDAB"/>
			</linearGradient>
			<path style="fill:url(#SVGID_00000070822300530503705310000012626676010149715596_);" d="M529.67,414.29
				c-0.42-1.43-1.63-2.65-1.99-4.08c-0.48-1.92-0.47-3.97-0.7-5.95c-0.28-2.44,1.18-5.07,3.35-5.9c4.15-1.59,8.36-2.32,12.85-1.54
				c2.83,0.49,5.76,0.55,8.65,0.57c0.99,0.01,1.99,0,2.98-0.01c-2.71,0.63-5.46,1.08-8.32,0.82c-2.94-0.19-6.43,0.19-9.04,1.68
				c-6.03,3.46-0.4,10.85,3.49,13.28c6.66,4.12,15.47,6.32,22.52,2.88c-0.71,1.72-1.53,2.93-2.43,3.23
				c-1.46,0.49-5.87,1.65-7.29,1.6c-5.99-0.19-14.58-3.21-20.5-4.7C531.87,415.81,530.27,416.32,529.67,414.29z"/>
			
				<linearGradient id="SVGID_00000047039855024868003550000015040618306311861939_" gradientUnits="userSpaceOnUse" x1="622.8624" y1="246.2189" x2="642.2125" y2="246.2189">
				<stop  offset="0" style="stop-color:#FFFEBA"/>
				<stop  offset="0" style="stop-color:#FAD483"/>
				<stop  offset="0.2279" style="stop-color:#EFCB80"/>
				<stop  offset="0.414" style="stop-color:#FFECA8"/>
				<stop  offset="0.586" style="stop-color:#FFECA7"/>
				<stop  offset="0.7721" style="stop-color:#FFFFC9"/>
				<stop  offset="1" style="stop-color:#FFEDAB"/>
			</linearGradient>
			<path style="fill:url(#SVGID_00000047039855024868003550000015040618306311861939_);" d="M622.86,253.48
				c-0.08-4.59,2.7-11.08,6.4-13.59c1.31-0.89,3.74-1.23,5.16-0.63c3.73,1.57,6.01,4.82,7.79,8.41
				C636.34,250.65,626.97,253.44,622.86,253.48z"/>
			<path class="st30" d="M566.27,274.38c-4.13,0.95-8.91-2.67-9.26-7.62c8.17-0.16,16.15-0.32,24.57-0.49
				C577.77,270.38,573,272.84,566.27,274.38z"/>
			<path class="st31" d="M557.01,266.76c3.77-0.08,7.51-0.15,11.26-0.23c-2.48,0.82-7.76,0.3-6.64,3.13
				c1.73,4.33,7.77,2.78,11.4,1.27c2.46-0.94,4.71-2.42,7.13-3.25c-3.57,3.27-7.97,5.34-13.88,6.69
				C562.14,275.33,557.37,271.71,557.01,266.76z"/>
			
				<linearGradient id="SVGID_00000076572009506757814560000012663702433718647213_" gradientUnits="userSpaceOnUse" x1="610.9537" y1="245.0833" x2="623.5251" y2="245.0833">
				<stop  offset="0" style="stop-color:#DDBC75"/>
				<stop  offset="0" style="stop-color:#D3A84B"/>
				<stop  offset="0.2279" style="stop-color:#CEAF6F"/>
				<stop  offset="0.414" style="stop-color:#C79D38"/>
				<stop  offset="0.586" style="stop-color:#CBA043"/>
				<stop  offset="0.7721" style="stop-color:#8D5B00"/>
				<stop  offset="1" style="stop-color:#FFEA8E"/>
			</linearGradient>
			<path style="fill:url(#SVGID_00000076572009506757814560000012663702433718647213_);" d="M619.87,253.93
				c-1.59,0.1-2.9,0.19-4.17,0.27c-0.67-1.04-1.3-2.01-1.99-3.06c2.22-1.57,4.51-3.15,4.22-6.38c-0.81,0.55-1.36,1.29-1.97,1.97
				c-0.64,0.7-2.42,1.86-2.62,1.79c3.19-5.13-1.44-8.6-2.39-12.54c4.14,1.21,8.36,2.44,12.57,3.66
				C620.57,243.6,619.03,248.48,619.87,253.93z"/>
			
				<linearGradient id="SVGID_00000005982404629922917790000015223402009998304134_" gradientUnits="userSpaceOnUse" x1="625.2864" y1="243.9469" x2="642.2125" y2="243.9469">
				<stop  offset="0" style="stop-color:#FFFFC3"/>
				<stop  offset="0" style="stop-color:#C59528"/>
				<stop  offset="0.2279" style="stop-color:#FFEEA9"/>
				<stop  offset="0.414" style="stop-color:#FECE61"/>
				<stop  offset="0.586" style="stop-color:#FFFFD0"/>
				<stop  offset="0.7721" style="stop-color:#C2A262"/>
				<stop  offset="1" style="stop-color:#D4B578"/>
			</linearGradient>
			<path style="fill:url(#SVGID_00000005982404629922917790000015223402009998304134_);" d="M630.54,243.09
				c-1.13-0.18-2.29-0.19-3.43,0.21c-0.79,0.27-1.36,0.75-1.82,1.32c1.08-1.98,2.45-3.7,3.98-4.74c1.31-0.89,3.74-1.23,5.16-0.63
				c3.73,1.57,6.01,4.82,7.79,8.41c-0.85,0.43-1.77,0.86-2.74,1.27C637.41,245.98,634.21,243.83,630.54,243.09z"/>
			
				<linearGradient id="SVGID_00000146483077342844319200000015591527028293995446_" gradientUnits="userSpaceOnUse" x1="610.9537" y1="239.8895" x2="623.5251" y2="239.8895">
				<stop  offset="0" style="stop-color:#DDBC75"/>
				<stop  offset="0" style="stop-color:#D3A84B"/>
				<stop  offset="0.2279" style="stop-color:#CEAF6F"/>
				<stop  offset="0.414" style="stop-color:#C79D38"/>
				<stop  offset="0.586" style="stop-color:#CBA043"/>
				<stop  offset="0.7721" style="stop-color:#8D5B00"/>
				<stop  offset="1" style="stop-color:#FFEA8E"/>
			</linearGradient>
			<path style="fill:url(#SVGID_00000146483077342844319200000015591527028293995446_);" d="M610.95,235.97
				c4.14,1.21,8.36,2.44,12.57,3.66c-0.97,1.3-1.78,2.69-2.41,4.17c-2.8-1.26-5.63-2.44-8.34-3.84
				C612.05,238.63,611.28,237.33,610.95,235.97z"/>
			
				<linearGradient id="SVGID_00000085209075792530634530000014267500536816889269_" gradientUnits="userSpaceOnUse" x1="514.1813" y1="237.9964" x2="541.2339" y2="237.9964">
				<stop  offset="0" style="stop-color:#FFFFC3"/>
				<stop  offset="0" style="stop-color:#C59528"/>
				<stop  offset="0.2279" style="stop-color:#FFEEA9"/>
				<stop  offset="0.414" style="stop-color:#FECE61"/>
				<stop  offset="0.586" style="stop-color:#FFFFD0"/>
				<stop  offset="0.7721" style="stop-color:#C2A262"/>
				<stop  offset="1" style="stop-color:#D4B578"/>
			</linearGradient>
			<path style="fill:url(#SVGID_00000085209075792530634530000014267500536816889269_);" d="M527.21,239.4
				c-2.26,0.9-4.51,1.54-6.81,2.01c-0.47,0.1-1.14-0.37-1.6-0.73c-0.76-0.58-1.41-1.28-2.13-1.92c-0.91-0.81-2.57-2.98-2.49-3.26
				c8.96-1.69,17.85-0.94,27.05,1.09c-6.43,3.26-12.85,0.92-19.11,1.01C522.13,237.86,525.51,239.06,527.21,239.4z"/>
			
				<linearGradient id="SVGID_00000095339643529611619840000002417481917124908470_" gradientUnits="userSpaceOnUse" x1="514.1813" y1="236.4523" x2="541.2339" y2="236.4523">
				<stop  offset="0" style="stop-color:#FFFFC3"/>
				<stop  offset="0" style="stop-color:#C59528"/>
				<stop  offset="0.2279" style="stop-color:#FFEEA9"/>
				<stop  offset="0.414" style="stop-color:#FECE61"/>
				<stop  offset="0.586" style="stop-color:#FFFFD0"/>
				<stop  offset="0.7721" style="stop-color:#C2A262"/>
				<stop  offset="1" style="stop-color:#D4B578"/>
			</linearGradient>
			<path style="fill:url(#SVGID_00000095339643529611619840000002417481917124908470_);" d="M519.18,236.32
				c-1.51-0.11-2.97,0-4.4,0.25c-0.38-0.52-0.63-0.95-0.6-1.06c8.96-1.69,17.85-0.94,27.05,1.09c-3.24,1.64-6.47,1.86-9.69,1.69
				C527.93,236.51,523.26,236.59,519.18,236.32z"/>
			<path class="st30" d="M604,250.84c1.31-4.46,2.62-8.91,3.96-13.45C611.83,242.07,610.52,247.18,604,250.84z"/>
			
				<linearGradient id="SVGID_00000026856520459406441610000012861748488558802830_" gradientUnits="userSpaceOnUse" x1="412.6068" y1="315.1212" x2="687.857" y2="315.1212">
				<stop  offset="0" style="stop-color:#DDBC75"/>
				<stop  offset="0" style="stop-color:#D3A84B"/>
				<stop  offset="0.2279" style="stop-color:#CEAF6F"/>
				<stop  offset="0.414" style="stop-color:#C79D38"/>
				<stop  offset="0.586" style="stop-color:#CBA043"/>
				<stop  offset="0.7721" style="stop-color:#8D5B00"/>
				<stop  offset="1" style="stop-color:#FFEA8E"/>
			</linearGradient>
			<path style="fill:url(#SVGID_00000026856520459406441610000012861748488558802830_);" d="M662.83,288.05
				c-0.14-0.84-0.43-1.56-0.32-2.2c0.32-2.01,2.88-7.07,3.72-7.61c0.42,0.74,0.91,1.44,1.23,2.22c1.06,2.5,1.9,5.12,3.14,7.52
				c0.86,1.65,2.71,1.63,3.69,0.04c2.57-4.17,5.81-7.61,9.76-10.55c1.63-1.21,2.9-3.28,3.61-5.22c0.48-1.3-0.01-3.19-0.61-4.59
				c-1.9-4.43-4.06-8.75-6.1-13.12c-0.27-0.58-0.44-1.21-0.84-2.33c1.11,0.63,1.76,1,2.44,1.39c0.63-5.93-1.4-10.31-5.7-12.43
				c-2.9-1.43-3.75-1.31-6.08,0.84c-0.64,0.6-1.28,1.21-1.64,1.55c2.4,2.56,4.71,5.02,7.01,7.48c-0.16,0.21-12.8-4.57-19.09-4.26
				c-2.2,0.11-4.59,0.82-6.46,1.97c-2.26,1.39-4.06,3.54-6.07,5.34c-0.58,0.52-1.29,1.44-1.79,1.35c-0.69-0.12-1.23-1.04-1.76-1.55
				c-4.25,1.78-8.64,3.75-13.14,5.45c-3.85,1.45-7.83,1.6-11.8,0.2c-2.8-0.99-4.98,0.26-6.76,2.21c-1.68,1.85-3.12,3.93-4.68,5.93
				c-0.59-5.19,0.04-6.45,5.61-11.92c-1.22,0.11-2.68-0.16-3.61,0.42c-2.09,1.31-4.32,2.75-5.75,4.69
				c-2.04,2.76-3.42,6.02-4.95,8.82c-1.31-3.88-1.29-4.02,1.86-11.76c-3.66,2.26-6.35,4.97-7.75,8.76
				c-0.81,2.19,1.54,4.74,3.85,4.36c0.43-0.07,0.85-0.21,0.86-0.21c1.4,1.09,2.44,2.17,3.71,2.79c1.64,0.8,3.32,0.9,4.28-1.27
				c0.13-0.3,4.59,2.98,6.63,3.85c2.22,0.94,4.75,1.13,7.12,1.73c1.37,0.35,2.71,0.86,4.06,1.29c0.01,0.21-10.41,0.87-11.32,0.59
				c-2.89-0.9-5.65-1.2-8.77-0.5c-1.95,0.44-4.32-0.92-6.49-1.49c-0.93-0.24-1.87-0.8-2.78-0.75c-2.45,0.14-4.76,0.06-6.44-2.01
				c-13.52,13.25-29.64,11.11-39.41,4.51c9.53,3.63,18.75,2.25,27.83-1.14c-0.02-0.32-0.04-0.65-0.06-0.97
				c-1.21,0.15-2.44,0.18-3.61,0.45c-5.03,1.16-10.12,2.18-15.1,0.18c-2.53-1.02-4.76-2.78-6.93-4.64
				c3.18,2.38,6.68,3.24,11.12,3.01c-2.62-2.88-4.83-5.43-7.2-7.81c-0.36-0.37-1.53-0.1-2.26,0.1c-2.92,0.8-5.79,1.24-8.69-0.18
				c-2.45-1.21-4.01-2.96-4.19-5.8c-0.34-5.46,2.49-11.91,7.86-13.79c-0.6,1.15-0.92,1.95-1.39,2.65c-1.64,2.42-3.26,4.78-2.59,7.99
				c0.56,2.66,2.29,4.59,4.99,4.98c1.23,0.17,2.54,0.21,3.77,0.03c4.47-0.65,8.92-1.43,13.57-2.18c-3.13-1.55-6.52-0.96-10.35-1.28
				c0.9-0.41,1.25-0.67,1.64-0.73c4.48-0.66,8.96-1.38,13.5-0.37c3.63,0.8,7.29,1.45,10.91,2.26c16.3-0.73,7.73-13.96,7.91-14.1
				c3.23,1.13,4.76,3.71,5.41,6.99c2.44-0.93,4.08-3.5,3.33-6.91c-0.56-2.56-2.38-4.85-3.94-7.83c0.37-1.07,7.28,4.07,9.58,6.2
				c0.6-2.06,1.69-4.55,1.96-7.13c0.26-2.5-0.32-5.09-0.15-7.92c0.73,1.13,1.46,2.27,2.18,3.4c1.24-2.78-0.82-6.97-4.76-9.72
				c-2.72-1.9-8.36-0.93-11.62,2.09c1.5,1.06,4.98,4.41,5.24,5.04c-0.65,0.06-5.25-1.46-6.96-1.64
				c-19.99-3.73-27.57,3.59-32.89,5.83c-0.4,0.17-0.96,0.41-1.08,0.75c-1.01,3-3.81,3.07-6.15,3.68
				c-10.19,2.68-20.51,4.9-30.58,7.95c-6.75,2.05-13.16,5.22-19.86,7.94c3.3,0.17,6.33,0.25,9.34,0.5
				c5.07,0.42,9.29,2.93,13.42,5.63c1.9,1.24,0.64,2.42-0.39,3.14c-2.06,1.45-4.18,2.92-6.49,3.87c-5.49,2.24-11.09,4.19-16.67,6.21
				c-0.83,0.3-1.78,0.56-2.62,0.44c-5.19-0.73-10.41-1.36-15.53-2.46c-2.46-0.53-2.69-1.68-1.31-3.78c1.21-1.84,2.68-3.52,3.75-4.9
				c-13.52,6.69-38.11,33.47-42.78,47.24c1.12-1.12,1.84-1.85,2.58-2.58c4.48-4.44,10.25-6.48,15.98-8.58
				c2.09-0.76,4.2-1.46,6.32-2.14c1.12-0.36,2.27-0.78,3.43-0.85c1.93-0.11,2.87,1.04,2.22,2.83c-2.51,6.88-5.72,13.38-10.73,18.85
				c-0.95,1.04-1.99,2.02-2.83,3.15c-5.6,7.59-13.72,9.04-22.35,9.15c-1.62,0.02-1.92-0.69-2-3.47
				c-6.45,9.99-16.04,42.94-16.5,57.32c5.7-9.54,12.81-16.75,23.51-20.36c0.43,0.95,1.3,2.19,1.56,3.54
				c1.96,10.26,0.89,20.26-2.85,29.98c-0.39,1.02-1.07,1.94-1.75,3.12c3.99,1.03,7.9,2.05,11.99,3.1c1.06-2.09,1.97-4.28,3.21-6.26
				c3.57-5.72,7.81-10.84,14.11-13.75c3.31-1.53,6.79-1.35,10.27-0.55c0.56,0.13,1.34,0.42,1.67,0.17c3.5-2.63,7.74-2.34,11.7-3.15
				c0.2-0.04,0.38-0.18,0.68-0.33c-1.03-1.67-2.06-3.26-3.02-4.9c-0.49-0.83-0.99-1.69-1.25-2.6c-2.34-8.19-5.79-42.13-5.44-42.71
				c0.5,0.49,5.24,8.57,7.13,12.1c0.58,1.09,1.29,2.11,1.78,2.9c0.91-6.68,1.86-13.47,2.74-20.26c0.68-5.26,2.85-9.97,5.26-14.59
				c4.08-7.82,8.84-15.14,15.69-20.87c4.48-3.75,9.56-6.26,15.31-7.31c2.19-0.4,4.39-0.35,6.48,1.07
				c-3.78,2.76-7.66,5.15-10.99,8.16c-3.56,3.22-4.09,8.09-5.7,12.92c2.36-2.66,4.29-4.99,6.38-7.17c4.3-4.47,9.48-7.59,15.29-9.73
				c2.64-0.98,9.1-2.96,9.72-2.91c-0.25,0.62-5.6,5.58-7.91,7.56c-3.83,3.29-6.39,7.45-7.93,12.25c3.02-4.26,6.37-8.11,10.96-10.79
				c6.98-4.06,14.46-5.44,22.48-5c4.29,0.23,8.23,1.04,11.71,3.57c1.8,1.3,3.54,2.72,3.59,5.2c-9.63-4.94-14.75-4.4-18.03-3.32
				c2.25,2.76,5.16,4.22,8.02,5.74c5.76,3.06,11.9,4.04,18.35,3.34c6.09-0.67,12.19-1.32,18.88-2.05
				c-4.37-2.53-8.61-2.53-13.23-2.34c1.83-2.48,4.17-2.75,6.37-2.41c2.98,0.46,5.92,1.32,8.82,2.22c3.96,1.23,7.86,2.65,11.43,3.87
				c0.76-2.5,1.12-4.86,2.19-6.85c1.14-2.13,2.33-1.86,3.39,0.32c0.84,1.74,1.63,3.51,2.68,5.12c0.34,0.52,1.59,1,2.09,0.77
				c1.72-0.78,3.42-1.72,4.87-2.91c1.83-1.49,3.32-3.4,5.13-4.94C646.48,289.96,653.72,286.46,662.83,288.05z M547.55,246.51
				c7.6-8.12,30.73-8.22,35.24-0.08C570.95,242.78,559.29,242.87,547.55,246.51z M657.03,265.96c-5.08-1.98-10.4-2.39-15.76-2.5
				c-1.61-0.03-3.25,0.22-4.83,0.55c-1.97,0.41-2.82,1.73-2.57,3.78c0.21,1.76,0.33,3.53,0.49,5.3c-0.23,0.13-2.91-3.67-3.81-5.79
				c-1.73-4.07-0.49-6.62,3.61-8.21c9.55-3.69,27.73,6.97,28.72,8.13C662.74,267.38,658.79,266.65,657.03,265.96z M648.06,272.85
				c-0.62,0.4-1.3,0.72-1.92,1.12c-1.99,1.3-5.13,1.99-2.35,5.9c-3.64-0.29-4.33-2.81-5.44-4.63c-2.03-3.32-0.31-6.99,3.52-7.85
				c1.44-0.33,2.93-0.44,4.41-0.57c3.46-0.29,8.45,2.09,10.18,5.26C652.98,269.31,650.55,271.23,648.06,272.85z"/>
			
				<linearGradient id="SVGID_00000169529392030478507280000005083855272281906583_" gradientUnits="userSpaceOnUse" x1="539.9595" y1="258.5201" x2="588.1505" y2="258.5201">
				<stop  offset="0" style="stop-color:#DDBC75"/>
				<stop  offset="0" style="stop-color:#D3A84B"/>
				<stop  offset="0.2279" style="stop-color:#CEAF6F"/>
				<stop  offset="0.414" style="stop-color:#C79D38"/>
				<stop  offset="0.586" style="stop-color:#CBA043"/>
				<stop  offset="0.7721" style="stop-color:#8D5B00"/>
				<stop  offset="1" style="stop-color:#FFEA8E"/>
			</linearGradient>
			<path style="fill:url(#SVGID_00000169529392030478507280000005083855272281906583_);" d="M549.91,258.73
				c-1.29-0.2-2.73-0.59-4.09-0.3c3.81-1.06,7.57-1.81,11.58-2.01c4.94-0.31,16.11,2.42,17.29,2.27c4.78-0.57,12.9-0.47,13.02-6.39
				c1.12,4,0.86,9.56-9.56,10.03c-3.63-0.81-7.29-1.46-10.91-2.26c-4.54-1.01-9.02-0.29-13.5,0.37c-0.38,0.06-0.74,0.32-1.64,0.73
				c3.82,0.33,7.22-0.27,10.35,1.28c-4.64,0.76-9.1,1.53-13.57,2.18c-1.23,0.18-2.53,0.14-3.77-0.03c-2.7-0.38-4.43-2.31-4.99-4.98
				c-0.15-0.72-0.19-1.4-0.13-2.05c1.23,1.61,3.11,2.48,5.09,2.98C546.99,261.01,548.26,259.22,549.91,258.73z"/>
			
				<linearGradient id="SVGID_00000111159289792527097130000006808819635967398076_" gradientUnits="userSpaceOnUse" x1="589.8649" y1="250.3413" x2="594.9752" y2="250.3413">
				<stop  offset="0" style="stop-color:#DDBC75"/>
				<stop  offset="0" style="stop-color:#D3A84B"/>
				<stop  offset="0.2279" style="stop-color:#CEAF6F"/>
				<stop  offset="0.414" style="stop-color:#C79D38"/>
				<stop  offset="0.586" style="stop-color:#CBA043"/>
				<stop  offset="0.7721" style="stop-color:#8D5B00"/>
				<stop  offset="1" style="stop-color:#FFEA8E"/>
			</linearGradient>
			<path style="fill:url(#SVGID_00000111159289792527097130000006808819635967398076_);" d="M591.61,251.05
				c1.79-0.88,2.16-2.73,2.18-4.47c0-0.39-0.04-0.76-0.1-1.11c0.49,0.94,0.88,1.87,1.09,2.84c0.75,3.4-0.89,5.98-3.33,6.91
				c-0.3-1.55-0.81-2.94-1.59-4.1C590.43,251.26,591.02,251.29,591.61,251.05z"/>
			
				<linearGradient id="SVGID_00000049182994001476160150000006601863004900979618_" gradientUnits="userSpaceOnUse" x1="596.2089" y1="243.9122" x2="602.1306" y2="243.9122">
				<stop  offset="0" style="stop-color:#FFFFC3"/>
				<stop  offset="0" style="stop-color:#C59528"/>
				<stop  offset="0.2279" style="stop-color:#FFEEA9"/>
				<stop  offset="0.414" style="stop-color:#FECE61"/>
				<stop  offset="0.586" style="stop-color:#FFFFD0"/>
				<stop  offset="0.7721" style="stop-color:#C2A262"/>
				<stop  offset="1" style="stop-color:#D4B578"/>
			</linearGradient>
			<path style="fill:url(#SVGID_00000049182994001476160150000006601863004900979618_);" d="M598.79,243.22
				c1.3-0.31,2.51-1.05,3.34-2.07c-0.44,2-1.22,3.91-1.69,5.54c-0.91-0.85-2.56-2.17-4.23-3.39
				C597.06,243.44,597.92,243.45,598.79,243.22z"/>
			
				<linearGradient id="SVGID_00000111899648401647863270000002938910439571940229_" gradientUnits="userSpaceOnUse" x1="633.826" y1="266.6808" x2="661.0054" y2="266.6808">
				<stop  offset="0" style="stop-color:#FFFEBA"/>
				<stop  offset="0" style="stop-color:#FAD483"/>
				<stop  offset="0.2279" style="stop-color:#EFCB80"/>
				<stop  offset="0.414" style="stop-color:#FFECA8"/>
				<stop  offset="0.586" style="stop-color:#FFECA7"/>
				<stop  offset="0.7721" style="stop-color:#FFFFC9"/>
				<stop  offset="1" style="stop-color:#FFEDAB"/>
			</linearGradient>
			<path style="fill:url(#SVGID_00000111899648401647863270000002938910439571940229_);" d="M636.44,264.01
				c1.58-0.33,3.22-0.58,4.83-0.55c5.36,0.11,10.68,0.52,15.76,2.5c0.99,0.39,2.67,0.79,3.98,1.04c-0.41,0.2-0.95,0.05-1.28-0.07
				c-6.61-1.19-12.93-2.59-19.66-1.98c-2.95,0.25-5.32,2.27-5.98,4.95c-0.06-0.71-0.13-1.42-0.22-2.12
				C633.62,265.74,634.47,264.42,636.44,264.01z"/>
			
				<linearGradient id="SVGID_00000134235186779387915580000002520546570798626694_" gradientUnits="userSpaceOnUse" x1="436.4886" y1="289.2156" x2="479.2702" y2="289.2156">
				<stop  offset="0" style="stop-color:#FFFEBA"/>
				<stop  offset="0" style="stop-color:#FAD483"/>
				<stop  offset="0.2279" style="stop-color:#EFCB80"/>
				<stop  offset="0.414" style="stop-color:#FFECA8"/>
				<stop  offset="0.586" style="stop-color:#FFECA7"/>
				<stop  offset="0.7721" style="stop-color:#FFFFC9"/>
				<stop  offset="1" style="stop-color:#FFEDAB"/>
			</linearGradient>
			<path style="fill:url(#SVGID_00000134235186779387915580000002520546570798626694_);" d="M458.34,290.98
				c-2.9,3.82-5.24,7.93-7.32,12.19c-4.34,1.69-8.53,3.68-11.96,7.08c-0.73,0.73-1.46,1.46-2.58,2.58
				c4.67-13.77,29.26-40.55,42.78-47.24c-1.07,1.38-2.54,3.06-3.75,4.9c-1.23,1.88-1.18,2.99,0.6,3.59
				C468.82,277.7,463.29,284.39,458.34,290.98z"/>
			
				<linearGradient id="SVGID_00000093861401705691137500000007625726375890129796_" gradientUnits="userSpaceOnUse" x1="495.7785" y1="240.8779" x2="604.7886" y2="240.8779">
				<stop  offset="0" style="stop-color:#FFFEBA"/>
				<stop  offset="0" style="stop-color:#FAD483"/>
				<stop  offset="0.2279" style="stop-color:#EFCB80"/>
				<stop  offset="0.414" style="stop-color:#FFECA8"/>
				<stop  offset="0.586" style="stop-color:#FFECA7"/>
				<stop  offset="0.7721" style="stop-color:#FFFFC9"/>
				<stop  offset="1" style="stop-color:#FFEDAB"/>
			</linearGradient>
			<path style="fill:url(#SVGID_00000093861401705691137500000007625726375890129796_);" d="M599.62,231
				c-0.71-0.77-1.58-1.57-2.47-2.21c-1.13-0.75-2.57-1.56-4.13-1.14c2.15,3.73,4.84,7.21,5.16,11.57
				c-10.29-6.82-24.02-8.54-35.33-2.42c-5.78,3.08-11.14,6.14-17.33,8.08c-0.09,0.07-11.48,3.17-16.52,4.48
				c-10.61,2.74-21.4,6.79-24.28,8.07c-2.88-0.22-5.79-0.3-8.94-0.47c6.7-2.73,13.11-5.9,19.86-7.94
				c10.07-3.05,20.39-5.27,30.58-7.95c2.34-0.61,5.14-0.68,6.15-3.68c0.11-0.34,0.67-0.58,1.08-0.75c5.33-2.24,12.9-9.56,32.89-5.83
				c1.71,0.18,6.31,1.7,6.96,1.64c-0.27-0.63-3.75-3.98-5.24-5.04c3.27-3.02,8.9-4,11.62-2.09c3.94,2.76,6,6.95,4.76,9.72
				c-0.73-1.13-1.45-2.27-2.18-3.4c-0.06,0.98-0.03,1.93,0.03,2.85C601.53,233.23,600.64,232.05,599.62,231z"/>
			
				<linearGradient id="SVGID_00000093892486009565418530000006918091217422698645_" gradientUnits="userSpaceOnUse" x1="589.9279" y1="262.4558" x2="597.7682" y2="262.4558">
				<stop  offset="0" style="stop-color:#DDBC75"/>
				<stop  offset="0" style="stop-color:#D3A84B"/>
				<stop  offset="0.2279" style="stop-color:#CEAF6F"/>
				<stop  offset="0.414" style="stop-color:#C79D38"/>
				<stop  offset="0.586" style="stop-color:#CBA043"/>
				<stop  offset="0.7721" style="stop-color:#8D5B00"/>
				<stop  offset="1" style="stop-color:#FFEA8E"/>
			</linearGradient>
			<path style="fill:url(#SVGID_00000093892486009565418530000006918091217422698645_);" d="M593.04,264.77
				c-1.09,0.58-2.19,1.34-3.12,2.23c0.02-0.11,0.05-0.22,0.09-0.32c1.4-3.79,4.09-6.5,7.75-8.76c-1.47,3.6-2.26,5.56-2.55,7.01
				C594.59,264.49,593.78,264.38,593.04,264.77z"/>
			
				<linearGradient id="SVGID_00000092446217810644311430000000854993394955148674_" gradientUnits="userSpaceOnUse" x1="599.2189" y1="259.562" x2="610.2119" y2="259.562">
				<stop  offset="0" style="stop-color:#FFFFC3"/>
				<stop  offset="0" style="stop-color:#C59528"/>
				<stop  offset="0.2279" style="stop-color:#FFEEA9"/>
				<stop  offset="0.414" style="stop-color:#FECE61"/>
				<stop  offset="0.586" style="stop-color:#FFFFD0"/>
				<stop  offset="0.7721" style="stop-color:#C2A262"/>
				<stop  offset="1" style="stop-color:#D4B578"/>
			</linearGradient>
			<path style="fill:url(#SVGID_00000092446217810644311430000000854993394955148674_);" d="M603.06,261.61
				c-1.29,0.37-2.64,0.94-3.84,1.77c0.5-0.87,1.04-1.72,1.64-2.52c1.43-1.94,3.66-3.37,5.75-4.69c0.92-0.58,2.39-0.31,3.61-0.42
				c-3.53,3.47-5.08,5.24-5.59,7.4C604.59,262.04,604.34,261.22,603.06,261.61z"/>
			
				<linearGradient id="SVGID_00000144331478871078491740000011999694272422644649_" gradientUnits="userSpaceOnUse" x1="605.8213" y1="258.9098" x2="687.857" y2="258.9098">
				<stop  offset="0" style="stop-color:#FFFFC3"/>
				<stop  offset="0" style="stop-color:#C59528"/>
				<stop  offset="0.2279" style="stop-color:#FFEEA9"/>
				<stop  offset="0.414" style="stop-color:#FECE61"/>
				<stop  offset="0.586" style="stop-color:#FFFFD0"/>
				<stop  offset="0.7721" style="stop-color:#C2A262"/>
				<stop  offset="1" style="stop-color:#D4B578"/>
			</linearGradient>
			<path style="fill:url(#SVGID_00000144331478871078491740000011999694272422644649_);" d="M616.04,259.53
				c3.96,1.4,7.94,1.25,11.8-0.2c4.5-1.7,8.89-3.67,13.14-5.45c0.54,0.51,1.08,1.43,1.76,1.55c0.5,0.09,1.21-0.83,1.79-1.35
				c2.01-1.8,3.81-3.96,6.07-5.34c1.87-1.15,4.26-1.86,6.46-1.97c6.29-0.31,18.93,4.46,19.09,4.26c-2.31-2.46-4.61-4.92-7.01-7.48
				c0.36-0.34,0.99-0.96,1.64-1.55c2.33-2.15,3.18-2.27,6.08-0.84c4.3,2.12,6.33,6.5,5.7,12.43c-0.68-0.39-1.33-0.76-2.44-1.39
				c0.4,1.12,0.57,1.75,0.84,2.33c2.04,4.37,4.2,8.69,6.1,13.12c0.6,1.4,1.09,3.29,0.61,4.59c-0.71,1.94-1.98,4-3.61,5.22
				c-0.06,0.05-0.12,0.1-0.19,0.14c0.36-1.49,0.34-3.02-0.09-4.46c-3.48-11.23-11.28-22.3-23.89-23.26
				c-6.64-0.45-12.91,3.13-17.57,7.54c-1.24-1.1-1.96-2.29-3.73-1.57c-3.12,1.42-5.64,3.27-8.46,4.9
				c-5.04,3.11-10.45,2.77-16.29,3.02c-2.74,0.2-5.58,0.97-8,2.29c1.12-1.49,2.22-2.97,3.46-4.33
				C611.05,259.79,613.24,258.54,616.04,259.53z"/>
			
				<linearGradient id="SVGID_00000157996706123736858640000008407834457450193075_" gradientUnits="userSpaceOnUse" x1="624.8674" y1="295.056" x2="657.3811" y2="295.056">
				<stop  offset="0" style="stop-color:#DDBC75"/>
				<stop  offset="0" style="stop-color:#D3A84B"/>
				<stop  offset="0.2279" style="stop-color:#CEAF6F"/>
				<stop  offset="0.414" style="stop-color:#C79D38"/>
				<stop  offset="0.586" style="stop-color:#CBA043"/>
				<stop  offset="0.7721" style="stop-color:#8D5B00"/>
				<stop  offset="1" style="stop-color:#FFEA8E"/>
			</linearGradient>
			<path style="fill:url(#SVGID_00000157996706123736858640000008407834457450193075_);" d="M627.5,296.8
				c4.66-0.11,7.18-4.1,10.48-6.66c2.55-2.01,5.44-3.55,8.82-3.44c3.53,0.01,7.24,0.02,10.59,0.99c-6.64,0.31-12.26,3.42-17.42,7.81
				c-1.8,1.53-3.29,3.44-5.13,4.94c-1.46,1.19-3.16,2.13-4.87,2.91c-0.5,0.23-1.75-0.25-2.09-0.77c-1.04-1.61-1.84-3.38-2.68-5.12
				c-0.11-0.22-0.22-0.42-0.33-0.61c0.62,0.06,1.25,0.08,1.87,0.07C626.9,296.95,627.34,296.77,627.5,296.8z"/>
			
				<linearGradient id="SVGID_00000122691215750554758120000011061882490087020945_" gradientUnits="userSpaceOnUse" x1="597.306" y1="298.9753" x2="622.2538" y2="298.9753">
				<stop  offset="0" style="stop-color:#DDBC75"/>
				<stop  offset="0" style="stop-color:#D3A84B"/>
				<stop  offset="0.2279" style="stop-color:#CEAF6F"/>
				<stop  offset="0.414" style="stop-color:#C79D38"/>
				<stop  offset="0.586" style="stop-color:#CBA043"/>
				<stop  offset="0.7721" style="stop-color:#8D5B00"/>
				<stop  offset="1" style="stop-color:#FFEA8E"/>
			</linearGradient>
			<path style="fill:url(#SVGID_00000122691215750554758120000011061882490087020945_);" d="M619.74,295.59
				c0.79,0.34,1.64,0.62,2.52,0.84c-0.15,0.2-0.3,0.43-0.45,0.71c-1.06,1.98-1.42,4.34-2.19,6.85c-3.57-1.22-7.47-2.64-11.43-3.87
				c-2.89-0.9-5.84-1.76-8.82-2.22c-0.68-0.11-1.37-0.15-2.06-0.09c1.55-1.1,3.22-1.98,5.07-2.42
				C608.04,294.1,614.03,292.88,619.74,295.59z"/>
			
				<linearGradient id="SVGID_00000115473902465177363900000018188369869717945528_" gradientUnits="userSpaceOnUse" x1="562.0303" y1="281.2694" x2="613.2861" y2="281.2694">
				<stop  offset="0" style="stop-color:#DDBC75"/>
				<stop  offset="0" style="stop-color:#D3A84B"/>
				<stop  offset="0.2279" style="stop-color:#CEAF6F"/>
				<stop  offset="0.414" style="stop-color:#C79D38"/>
				<stop  offset="0.586" style="stop-color:#CBA043"/>
				<stop  offset="0.7721" style="stop-color:#8D5B00"/>
				<stop  offset="1" style="stop-color:#FFEA8E"/>
			</linearGradient>
			<path style="fill:url(#SVGID_00000115473902465177363900000018188369869717945528_);" d="M587.53,280.56
				c2.12,2.9,5,5.66,8.72,6.24c-4.74,1.75-9.65-0.26-14.26-2.05c-4.91-2-9.45,0.6-14.34,0.59c-1.92-0.02-3.77-0.21-5.62-0.56
				c7.39,0.08,15.42-2.59,22.69-9.72c1.68,2.06,3.99,2.15,6.44,2.01c0.91-0.05,1.85,0.5,2.78,0.75c2.17,0.57,4.54,1.93,6.49,1.49
				c3.12-0.71,5.88-0.4,8.77,0.5c0.35,0.11,2.07,0.08,4.08-0.01C604.67,281.37,595.85,283.68,587.53,280.56z"/>
			
				<linearGradient id="SVGID_00000150783026080677136980000012289487722380791978_" gradientUnits="userSpaceOnUse" x1="547.1251" y1="272.4743" x2="558.5614" y2="272.4743">
				<stop  offset="0" style="stop-color:#DDBC75"/>
				<stop  offset="0" style="stop-color:#D3A84B"/>
				<stop  offset="0.2279" style="stop-color:#CEAF6F"/>
				<stop  offset="0.414" style="stop-color:#C79D38"/>
				<stop  offset="0.586" style="stop-color:#CBA043"/>
				<stop  offset="0.7721" style="stop-color:#8D5B00"/>
				<stop  offset="1" style="stop-color:#FFEA8E"/>
			</linearGradient>
			<path style="fill:url(#SVGID_00000150783026080677136980000012289487722380791978_);" d="M550.63,272.27
				c-1.02-1.14-2.2-2.2-3.5-3.06c0.66-0.13,1.31-0.29,1.98-0.47c0.73-0.2,1.9-0.46,2.26-0.1c2.37,2.38,4.58,4.93,7.2,7.81
				c-2.5,0.13-4.71-0.09-6.73-0.73C552.45,274.57,551.43,273.18,550.63,272.27z"/>
			
				<linearGradient id="SVGID_00000106841574496986311030000001005194782280792498_" gradientUnits="userSpaceOnUse" x1="549.9922" y1="279.5825" x2="573.1442" y2="279.5825">
				<stop  offset="0" style="stop-color:#DDBC75"/>
				<stop  offset="0" style="stop-color:#D3A84B"/>
				<stop  offset="0.2279" style="stop-color:#CEAF6F"/>
				<stop  offset="0.414" style="stop-color:#C79D38"/>
				<stop  offset="0.586" style="stop-color:#CBA043"/>
				<stop  offset="0.7721" style="stop-color:#8D5B00"/>
				<stop  offset="1" style="stop-color:#FFEA8E"/>
			</linearGradient>
			<path style="fill:url(#SVGID_00000106841574496986311030000001005194782280792498_);" d="M553.08,278.36
				c0.22-0.27,0.26-0.53,0.18-0.78c0.36,0.18,0.73,0.35,1.11,0.5c4.98,2,10.07,0.98,15.1-0.18c1.18-0.27,2.41-0.31,3.61-0.45
				c0.02,0.32,0.04,0.65,0.06,0.97c-7.59,2.84-15.27,4.27-23.15,2.54C551.24,280.49,552.29,279.56,553.08,278.36z"/>
			<path class="st52" d="M635,289.98c0.16,0.09,0.32,0.18,0.47,0.27C635.32,290.16,635.16,290.07,635,289.98z"/>
			
				<linearGradient id="SVGID_00000058563746204782544700000001391964597205203876_" gradientUnits="userSpaceOnUse" x1="580.214" y1="293.5429" x2="581.1406" y2="293.5429">
				<stop  offset="0" style="stop-color:#FFFFC3"/>
				<stop  offset="0" style="stop-color:#C59528"/>
				<stop  offset="0.2279" style="stop-color:#FFEEA9"/>
				<stop  offset="0.414" style="stop-color:#FECE61"/>
				<stop  offset="0.586" style="stop-color:#FFFFD0"/>
				<stop  offset="0.7721" style="stop-color:#C2A262"/>
				<stop  offset="1" style="stop-color:#D4B578"/>
			</linearGradient>
			<path style="fill:url(#SVGID_00000058563746204782544700000001391964597205203876_);" d="M581.14,293.59
				c-0.31-0.03-0.62-0.06-0.93-0.08C580.55,293.48,580.85,293.51,581.14,293.59z"/>
			
				<linearGradient id="SVGID_00000088126488222609590900000008136099391516727717_" gradientUnits="userSpaceOnUse" x1="498.6872" y1="288.4911" x2="606.221" y2="288.4911">
				<stop  offset="0" style="stop-color:#DDBC75"/>
				<stop  offset="0" style="stop-color:#D3A84B"/>
				<stop  offset="0.2279" style="stop-color:#CEAF6F"/>
				<stop  offset="0.414" style="stop-color:#C79D38"/>
				<stop  offset="0.586" style="stop-color:#CBA043"/>
				<stop  offset="0.7721" style="stop-color:#8D5B00"/>
				<stop  offset="1" style="stop-color:#FFEA8E"/>
			</linearGradient>
			<path style="fill:url(#SVGID_00000088126488222609590900000008136099391516727717_);" d="M501.61,291.33
				c3.62-8.38,8.85-15.94,17.85-18.93c0.95-0.27,1.56-1,2.45-1.36c-3.46,3.11-6.36,6.8-8.79,10.73c7.34-5.65,17.09-6.04,25.95-4.92
				c-3.19,1.33-4.62,4.67-5.38,7.95c3.12-1.42,9.94-3.92,20.92,0.76c-2.17,1.15-5.2,0.93-6.8,3.25c4.85-0.82,9.5-2.5,14.59-2.21
				c0.42-0.02,0.97,0.15,1.46,0.23c4.26-0.25,7.97-0.09,12.01,0.54c5.64,1.04,10.06,4.55,15.18,6.83c-3.27,0.55-6.6-0.29-9.9-0.61
				c-0.29-0.07-0.59-0.11-0.93-0.08c0.31,0.02,0.62,0.05,0.93,0.08c0.88,0.23,1.58,0.85,2.25,1.33c1.49,1.06,2.61,2.39,4.43,2.93
				c2.12,0.74,4.14,0.56,6.33,0.82c0.11,0.06,0.28,0.07,0.44,0.06c-0.57,0.38-1.11,0.89-1.61,1.57c3.8-0.16,7.35-0.19,10.92,1.22
				c0.16,0.21,0.32,0.45,0.46,0.72c-0.14-0.26-0.29-0.5-0.46-0.72c0.77,0.3,1.53,0.67,2.31,1.11c-6.69,0.73-12.79,1.38-18.88,2.05
				c-6.45,0.71-12.59-0.27-18.35-3.34c-2.85-1.52-5.76-2.98-8.02-5.74c3.28-1.09,8.4-1.63,18.03,3.32c-0.05-2.47-1.79-3.89-3.59-5.2
				c-3.48-2.53-7.42-3.34-11.71-3.57c-8.02-0.43-15.5,0.94-22.48,5c-4.59,2.67-7.94,6.52-10.96,10.79c1.54-4.8,4.1-8.96,7.93-12.25
				c2.31-1.98,7.66-6.94,7.91-7.56c-0.62-0.06-7.08,1.93-9.72,2.91c-5.8,2.14-10.99,5.26-15.29,9.73c-2.09,2.17-4.01,4.5-6.38,7.17
				c1.61-4.83,2.13-9.7,5.7-12.92c3.33-3.01,7.21-5.39,10.99-8.16c-2.1-1.42-4.29-1.47-6.48-1.07c-5.75,1.05-10.83,3.56-15.31,7.31
				c-4.37,3.66-7.89,7.96-10.93,12.63C499.11,299.48,499.86,295.37,501.61,291.33z"/>
			
				<linearGradient id="SVGID_00000000937310170099633890000011054390445914288047_" gradientUnits="userSpaceOnUse" x1="483.7762" y1="327.7363" x2="483.7772" y2="327.7363">
				<stop  offset="0" style="stop-color:#DDBC75"/>
				<stop  offset="0" style="stop-color:#D3A84B"/>
				<stop  offset="0.2279" style="stop-color:#CEAF6F"/>
				<stop  offset="0.414" style="stop-color:#C79D38"/>
				<stop  offset="0.586" style="stop-color:#CBA043"/>
				<stop  offset="0.7721" style="stop-color:#8D5B00"/>
				<stop  offset="1" style="stop-color:#FFEA8E"/>
			</linearGradient>
			<polygon style="fill:url(#SVGID_00000000937310170099633890000011054390445914288047_);" points="483.78,327.74 483.78,327.73 
				483.78,327.74 			"/>
			
				<linearGradient id="SVGID_00000092434132709972130400000013524762587609061528_" gradientUnits="userSpaceOnUse" x1="483.4968" y1="328.1204" x2="483.9067" y2="328.1204">
				<stop  offset="0" style="stop-color:#DDBC75"/>
				<stop  offset="0" style="stop-color:#D3A84B"/>
				<stop  offset="0.2279" style="stop-color:#CEAF6F"/>
				<stop  offset="0.414" style="stop-color:#C79D38"/>
				<stop  offset="0.586" style="stop-color:#CBA043"/>
				<stop  offset="0.7721" style="stop-color:#8D5B00"/>
				<stop  offset="1" style="stop-color:#FFEA8E"/>
			</linearGradient>
			<path style="fill:url(#SVGID_00000092434132709972130400000013524762587609061528_);" d="M483.5,327.94l0.28-0.2
				c0.03,0.25,0.07,0.51,0.13,0.77C483.77,328.32,483.54,328.2,483.5,327.94z"/>
			
				<linearGradient id="SVGID_00000033349971540062322530000014543791660310525882_" gradientUnits="userSpaceOnUse" x1="477.2917" y1="300.8659" x2="477.5052" y2="300.8659">
				<stop  offset="0" style="stop-color:#DDBC75"/>
				<stop  offset="0" style="stop-color:#D3A84B"/>
				<stop  offset="0.2279" style="stop-color:#CEAF6F"/>
				<stop  offset="0.414" style="stop-color:#C79D38"/>
				<stop  offset="0.586" style="stop-color:#CBA043"/>
				<stop  offset="0.7721" style="stop-color:#8D5B00"/>
				<stop  offset="1" style="stop-color:#FFEA8E"/>
			</linearGradient>
			<path style="fill:url(#SVGID_00000033349971540062322530000014543791660310525882_);" d="M477.51,300.92
				c-0.05,0.09-0.13,0.14-0.21,0.18c0-0.15,0-0.3,0.01-0.46C477.37,300.73,477.51,300.92,477.51,300.92z"/>
			
				<linearGradient id="SVGID_00000028294831228847335880000001964166888369644966_" gradientUnits="userSpaceOnUse" x1="412.6068" y1="353.8701" x2="497.0078" y2="353.8701">
				<stop  offset="0" style="stop-color:#DDBC75"/>
				<stop  offset="0" style="stop-color:#D3A84B"/>
				<stop  offset="0.2279" style="stop-color:#CEAF6F"/>
				<stop  offset="0.414" style="stop-color:#C79D38"/>
				<stop  offset="0.586" style="stop-color:#CBA043"/>
				<stop  offset="0.7721" style="stop-color:#8D5B00"/>
				<stop  offset="1" style="stop-color:#FFEA8E"/>
			</linearGradient>
			<path style="fill:url(#SVGID_00000028294831228847335880000001964166888369644966_);" d="M437.68,369.7
				c-0.26-1.35-1.13-2.59-1.56-3.54c-10.7,3.61-17.82,10.82-23.51,20.36c0.46-14.38,10.04-47.33,16.5-57.32
				c0.08,2.78,0.38,3.49,2,3.47c0.61-0.01,1.22-0.02,1.83-0.05c-1.29,0.05,0.79,7.69,0.99,8.42c1.18,4.47,2.51,9.9,6.46,12.74
				c5.35,3.84,11.95,0.68,16.12-3.3c6.7-6.39,10.73-15.01,13.32-23.77c2.44-8.26,2.75-17.33,7.23-24.88
				c-0.43,0.73,1.88,7.63,2.17,9.1c1.06,5.39,4.24,10.95,4.24,16.47c0.01-10.48,8.96-13.28,13.54-20.96
				c-1.08,1.81-2.1,3.66-3.08,5.55c-2.41,4.63-4.58,9.33-5.26,14.59c-0.88,6.79-1.83,13.58-2.74,20.26
				c-0.49-0.79-1.19-1.81-1.78-2.9c-1.9-3.53-6.63-11.61-7.13-12.1c-0.35,0.58,3.1,34.52,5.44,42.71c0.26,0.91,0.76,1.78,1.25,2.6
				c0.96,1.64,1.99,3.23,3.02,4.9c-0.3,0.15-0.48,0.29-0.68,0.33c-3.96,0.8-8.21,0.52-11.7,3.15c-0.33,0.25-1.12-0.05-1.67-0.17
				c-3.48-0.8-6.96-0.98-10.27,0.55c-6.3,2.91-10.53,8.03-14.11,13.75c-1.24,1.98-2.15,4.17-3.21,6.26c-4.09-1.06-8-2.07-11.99-3.1
				c0.67-1.19,1.35-2.1,1.75-3.12C438.57,389.96,439.64,379.96,437.68,369.7z"/>
			
				<linearGradient id="SVGID_00000166638312295875976840000015960522348447832455_" gradientUnits="userSpaceOnUse" x1="433.0823" y1="375.827" x2="486.7159" y2="375.827">
				<stop  offset="0" style="stop-color:#DDBC75"/>
				<stop  offset="0" style="stop-color:#D3A84B"/>
				<stop  offset="0.2279" style="stop-color:#CEAF6F"/>
				<stop  offset="0.414" style="stop-color:#C79D38"/>
				<stop  offset="0.586" style="stop-color:#CBA043"/>
				<stop  offset="0.7721" style="stop-color:#8D5B00"/>
				<stop  offset="1" style="stop-color:#FFEA8E"/>
			</linearGradient>
			<path style="fill:url(#SVGID_00000166638312295875976840000015960522348447832455_);" d="M444.66,371.29
				c-0.14-1.53,0.25-2.88-0.13-4.3c1.6,4.34,1.59,9.28,4.86,12.83c5.85-0.85,10.36-4.86,14.92-8.45c3.72-2.91,6.05-6.61,8.34-11.03
				c0.44-0.93,1.34-1.79,1.6-2.78c1.39-4.01,3.15-7.84,3.96-11.82c1.15,10.56,2.88,24.04,4.25,28.8c0.26,0.91,0.76,1.78,1.25,2.6
				c0.96,1.64,1.99,3.23,3.02,4.9c-0.3,0.15-0.48,0.29-0.68,0.33c-3.96,0.8-8.21,0.52-11.7,3.15c-0.33,0.25-1.12-0.05-1.67-0.17
				c-3.48-0.8-6.96-0.98-10.27,0.55c-6.3,2.91-10.53,8.03-14.11,13.75c-1.24,1.98-2.15,4.17-3.21,6.26c-4.09-1.06-8-2.07-11.99-3.1
				c0.67-1.19,1.35-2.1,1.75-3.12c2.49-6.47,3.79-13.06,3.81-19.77c2.32-2.21,4.16-4.91,5.82-7.81
				C444.52,371.93,444.71,371.7,444.66,371.29z"/>
			
				<linearGradient id="SVGID_00000131346816436753115740000012864199615687678340_" gradientUnits="userSpaceOnUse" x1="412.6068" y1="357.8561" x2="437.3193" y2="357.8561">
				<stop  offset="0" style="stop-color:#FFFFC3"/>
				<stop  offset="0" style="stop-color:#C59528"/>
				<stop  offset="0.2279" style="stop-color:#FFEEA9"/>
				<stop  offset="0.414" style="stop-color:#FECE61"/>
				<stop  offset="0.586" style="stop-color:#FFFFD0"/>
				<stop  offset="0.7721" style="stop-color:#C2A262"/>
				<stop  offset="1" style="stop-color:#D4B578"/>
			</linearGradient>
			<path style="fill:url(#SVGID_00000131346816436753115740000012864199615687678340_);" d="M419.36,377.23
				c-2.5,2.76-4.72,5.87-6.76,9.29c0.46-14.38,10.04-47.33,16.5-57.32c0.08,2.78,0.38,3.49,2,3.47c2.11-0.03,4.19-0.14,6.21-0.39
				c-2.92,5.89-5.86,11.78-8.65,17.97C424.65,359.08,421.67,368.1,419.36,377.23z"/>
			
				<linearGradient id="SVGID_00000075855664062360972160000009530915162535499952_" gradientUnits="userSpaceOnUse" x1="479.5143" y1="405.3121" x2="506.7184" y2="405.3121">
				<stop  offset="0" style="stop-color:#DDBC75"/>
				<stop  offset="0" style="stop-color:#D3A84B"/>
				<stop  offset="0.2279" style="stop-color:#CEAF6F"/>
				<stop  offset="0.414" style="stop-color:#C79D38"/>
				<stop  offset="0.586" style="stop-color:#CBA043"/>
				<stop  offset="0.7721" style="stop-color:#8D5B00"/>
				<stop  offset="1" style="stop-color:#FFEA8E"/>
			</linearGradient>
			<path style="fill:url(#SVGID_00000075855664062360972160000009530915162535499952_);" d="M492.91,423.04
				c-0.81-3.2-1.52-6.35-1.71-9.53c-0.42-6.96-3.79-12.54-7.77-17.91c-1.31-1.77-2.61-3.56-3.91-5.35
				c6.96-3.98,14.85-3.48,17.49,1.18c-3.24,0.14-6.39,0.44-7.8,4.1c3.44-0.79,6.7-1.55,9.85,0.65c3.05,2.14,3.78,5.49,5.15,8.94
				c-1.21-0.49-2.06-0.97-2.97-1.18c-1.13-0.26-2.31-0.42-3.47-0.39c-0.42,0.01-1,0.66-1.14,1.13c-0.08,0.24,0.59,0.78,0.99,1.1
				c2.24,1.82,4.64,3.47,6.68,5.48c1.07,1.05,1.53,2.73,2.42,4.43C499.63,414.09,495.74,417.35,492.91,423.04z"/>
			<path class="st30" d="M665.3,282.27c1.08,2.24,2.12,4.43,3.27,6.81C664.44,288.47,663.23,285.88,665.3,282.27z"/>
			
				<linearGradient id="SVGID_00000181773053311035509040000013555783405123383994_" gradientUnits="userSpaceOnUse" x1="451.1848" y1="409.5597" x2="485.8725" y2="409.5597">
				<stop  offset="0" style="stop-color:#DDBC75"/>
				<stop  offset="0" style="stop-color:#D3A84B"/>
				<stop  offset="0.2279" style="stop-color:#CEAF6F"/>
				<stop  offset="0.414" style="stop-color:#C79D38"/>
				<stop  offset="0.586" style="stop-color:#CBA043"/>
				<stop  offset="0.7721" style="stop-color:#8D5B00"/>
				<stop  offset="1" style="stop-color:#FFEA8E"/>
			</linearGradient>
			<path style="fill:url(#SVGID_00000181773053311035509040000013555783405123383994_);" d="M463.31,408.32
				c-0.07-0.62-0.69-1.17-1.06-1.76c-0.56,0.37-2.62,2.75-3.09,3.59c-2.78-0.86-5.38-1.66-7.98-2.46c0.97-1.62,1.88-3.14,2.78-4.65
				c2.79-4.66,6.39-8.59,10.89-11.6c2.89-1.94,6.58-2.33,8.24,0.47c-2.2,1.81-6.5,6.39-6.52,6.92c0.47-0.08,3.28-1.5,4.31-1.86
				c2.3-0.81,4.78-1.86,6.87,0.26c1.37,1.39,2.36,3.14,3.62,4.86c-3.03,0.9-5.81,1.73-8.59,2.56c0.07,0.22,5.32,0.72,7.81,1.14
				c2.96,0.5,4.22,2.87,5.27,5.76c-0.64-0.21-0.96-0.34-1.29-0.43c-3.73-0.98-9.02,0.41-10.82,3.06c-2.45,3.59-2.71,7.24-0.1,10.98
				c0.71,1.02,0.9,2.4,1.48,4.06c-1.11-0.39-1.76-0.51-2.29-0.84c-6.07-3.73-9.19-9.22-9.57-16.29
				C463.2,410.84,463.45,409.56,463.31,408.32z"/>
			
				<linearGradient id="SVGID_00000149379732993864520760000017295580354205157797_" gradientUnits="userSpaceOnUse" x1="503.0732" y1="410.407" x2="525.8341" y2="410.407">
				<stop  offset="0" style="stop-color:#DDBC75"/>
				<stop  offset="0" style="stop-color:#D3A84B"/>
				<stop  offset="0.2279" style="stop-color:#CEAF6F"/>
				<stop  offset="0.414" style="stop-color:#C79D38"/>
				<stop  offset="0.586" style="stop-color:#CBA043"/>
				<stop  offset="0.7721" style="stop-color:#8D5B00"/>
				<stop  offset="1" style="stop-color:#FFEA8E"/>
			</linearGradient>
			<path style="fill:url(#SVGID_00000149379732993864520760000017295580354205157797_);" d="M509.23,405.57
				c-2.1-4.54-4.11-9.12-6.16-13.67c7.79-2.37,13.51-0.56,14.57,4.57c-1.59,0.23-5.66,1.61-5.66,2.06
				c0.01,0.33,9.85-0.87,9.45,10.84c-1.31-0.15-4.8,0.2-5.24,0.52c0.31,0.38,1.92,1.46,2.35,1.74c3.33,2.1,6.32,4.49,7.29,9.09
				c-3.97-2.48-7.51-2.24-10.87,0.29c-3.21,2.42-2.57,5.67-1.68,8.94c-0.24,0.07-1.55-4.03-1.4-5.05
				C512.9,418.18,512.1,411.75,509.23,405.57z"/>
			
				<linearGradient id="SVGID_00000152987063342237378710000007566839480619405989_" gradientUnits="userSpaceOnUse" x1="489.3293" y1="390.1721" x2="497.0031" y2="390.1721">
				<stop  offset="0" style="stop-color:#FFFFC3"/>
				<stop  offset="0" style="stop-color:#C59528"/>
				<stop  offset="0.2279" style="stop-color:#FFEEA9"/>
				<stop  offset="0.414" style="stop-color:#FECE61"/>
				<stop  offset="0.586" style="stop-color:#FFFFD0"/>
				<stop  offset="0.7721" style="stop-color:#C2A262"/>
				<stop  offset="1" style="stop-color:#D4B578"/>
			</linearGradient>
			<path style="fill:url(#SVGID_00000152987063342237378710000007566839480619405989_);" d="M490.78,389.88
				c-0.31-0.86-0.81-1.66-1.45-2.29c3.42,0.09,6.28,1.39,7.67,3.85c-2.08,0.09-4.13,0.25-5.7,1.32
				C491.44,391.8,491.17,390.79,490.78,389.88z"/>
			
				<linearGradient id="SVGID_00000172415621246226441260000003211732524697278904_" gradientUnits="userSpaceOnUse" x1="491.5933" y1="399.9356" x2="504.2061" y2="399.9356">
				<stop  offset="0" style="stop-color:#FFFFC3"/>
				<stop  offset="0" style="stop-color:#C59528"/>
				<stop  offset="0.2279" style="stop-color:#FFEEA9"/>
				<stop  offset="0.414" style="stop-color:#FECE61"/>
				<stop  offset="0.586" style="stop-color:#FFFFD0"/>
				<stop  offset="0.7721" style="stop-color:#C2A262"/>
				<stop  offset="1" style="stop-color:#D4B578"/>
			</linearGradient>
			<path style="fill:url(#SVGID_00000172415621246226441260000003211732524697278904_);" d="M491.59,395.03
				c2.57-0.47,5.05-0.52,7.47,1.17c3.05,2.14,3.78,5.49,5.15,8.94c-1.21-0.49-2.06-0.97-2.97-1.18c-0.55-0.13-1.11-0.23-1.68-0.3
				C498.68,399.6,495.4,396.56,491.59,395.03z"/>
			
				<linearGradient id="SVGID_00000136383937281880442320000003383154340269587093_" gradientUnits="userSpaceOnUse" x1="501.1819" y1="412.1428" x2="506.7184" y2="412.1428">
				<stop  offset="0" style="stop-color:#FFFFC3"/>
				<stop  offset="0" style="stop-color:#C59528"/>
				<stop  offset="0.2279" style="stop-color:#FFEEA9"/>
				<stop  offset="0.414" style="stop-color:#FECE61"/>
				<stop  offset="0.586" style="stop-color:#FFFFD0"/>
				<stop  offset="0.7721" style="stop-color:#C2A262"/>
				<stop  offset="1" style="stop-color:#D4B578"/>
			</linearGradient>
			<path style="fill:url(#SVGID_00000136383937281880442320000003383154340269587093_);" d="M502.35,412.96
				c0.15-1.5-0.31-3.06-1.17-4.38c1.08,0.85,2.14,1.73,3.11,2.69c1.07,1.05,1.53,2.73,2.42,4.43c-2.07-0.47-3.87-0.53-5.45-0.23
				C501.81,414.7,502.24,413.89,502.35,412.96z"/>
			
				<linearGradient id="SVGID_00000142872379239204620850000010406980067795854981_" gradientUnits="userSpaceOnUse" x1="463.8421" y1="393.3278" x2="473.0957" y2="393.3278">
				<stop  offset="0" style="stop-color:#FFFFC3"/>
				<stop  offset="0" style="stop-color:#C59528"/>
				<stop  offset="0.2279" style="stop-color:#FFEEA9"/>
				<stop  offset="0.414" style="stop-color:#FECE61"/>
				<stop  offset="0.586" style="stop-color:#FFFFD0"/>
				<stop  offset="0.7721" style="stop-color:#C2A262"/>
				<stop  offset="1" style="stop-color:#D4B578"/>
			</linearGradient>
			<path style="fill:url(#SVGID_00000142872379239204620850000010406980067795854981_);" d="M463.84,392.14
				c0.33-0.24,0.67-0.48,1.02-0.71c2.89-1.94,6.58-2.33,8.24,0.47c-1.34,1.1-3.46,3.24-4.92,4.85
				C467.76,394.63,465.95,392.76,463.84,392.14z"/>
			
				<linearGradient id="SVGID_00000156559898825517470260000008792303059200753071_" gradientUnits="userSpaceOnUse" x1="470.2505" y1="399.8709" x2="481.3774" y2="399.8709">
				<stop  offset="0" style="stop-color:#FFFFC3"/>
				<stop  offset="0" style="stop-color:#C59528"/>
				<stop  offset="0.2279" style="stop-color:#FFEEA9"/>
				<stop  offset="0.414" style="stop-color:#FECE61"/>
				<stop  offset="0.586" style="stop-color:#FFFFD0"/>
				<stop  offset="0.7721" style="stop-color:#C2A262"/>
				<stop  offset="1" style="stop-color:#D4B578"/>
			</linearGradient>
			<path style="fill:url(#SVGID_00000156559898825517470260000008792303059200753071_);" d="M470.25,397.23
				c0.25-0.11,0.47-0.2,0.64-0.26c2.3-0.81,4.78-1.86,6.87,0.26c1.37,1.39,2.36,3.14,3.62,4.86c-1.95,0.58-3.8,1.13-5.61,1.67
				C475.45,400.8,472.99,398.42,470.25,397.23z"/>
			
				<linearGradient id="SVGID_00000152250101864320561550000002757429089205342908_" gradientUnits="userSpaceOnUse" x1="476.0357" y1="408.5514" x2="485.8725" y2="408.5514">
				<stop  offset="0" style="stop-color:#FFFFC3"/>
				<stop  offset="0" style="stop-color:#C59528"/>
				<stop  offset="0.2279" style="stop-color:#FFEEA9"/>
				<stop  offset="0.414" style="stop-color:#FECE61"/>
				<stop  offset="0.586" style="stop-color:#FFFFD0"/>
				<stop  offset="0.7721" style="stop-color:#C2A262"/>
				<stop  offset="1" style="stop-color:#D4B578"/>
			</linearGradient>
			<path style="fill:url(#SVGID_00000152250101864320561550000002757429089205342908_);" d="M476.04,405.18
				c1.58,0.2,3.38,0.41,4.56,0.61c2.96,0.5,4.22,2.87,5.27,5.76c-0.64-0.21-0.96-0.34-1.29-0.43c-2.44-0.64-5.55-0.27-7.91,0.81
				C477.49,409.4,477.89,406.72,476.04,405.18z"/>
			
				<linearGradient id="SVGID_00000016779931111818659820000015520615384754056326_" gradientUnits="userSpaceOnUse" x1="512.5207" y1="394.3246" x2="517.6478" y2="394.3246">
				<stop  offset="0" style="stop-color:#FFFFC3"/>
				<stop  offset="0" style="stop-color:#C59528"/>
				<stop  offset="0.2279" style="stop-color:#FFEEA9"/>
				<stop  offset="0.414" style="stop-color:#FECE61"/>
				<stop  offset="0.586" style="stop-color:#FFFFD0"/>
				<stop  offset="0.7721" style="stop-color:#C2A262"/>
				<stop  offset="1" style="stop-color:#D4B578"/>
			</linearGradient>
			<path style="fill:url(#SVGID_00000016779931111818659820000015520615384754056326_);" d="M513.8,393.12
				c-0.33-0.69-0.76-1.32-1.28-1.86c2.74,0.74,4.57,2.52,5.13,5.2c-0.77,0.11-2.14,0.5-3.34,0.92
				C515.13,396.18,514.3,394.29,513.8,393.12z"/>
			
				<linearGradient id="SVGID_00000107590822151815553380000000727956541596094352_" gradientUnits="userSpaceOnUse" x1="513.6887" y1="404.1527" x2="521.4501" y2="404.1527">
				<stop  offset="0" style="stop-color:#FFFFC3"/>
				<stop  offset="0" style="stop-color:#C59528"/>
				<stop  offset="0.2279" style="stop-color:#FFEEA9"/>
				<stop  offset="0.414" style="stop-color:#FECE61"/>
				<stop  offset="0.586" style="stop-color:#FFFFD0"/>
				<stop  offset="0.7721" style="stop-color:#C2A262"/>
				<stop  offset="1" style="stop-color:#D4B578"/>
			</linearGradient>
			<path style="fill:url(#SVGID_00000107590822151815553380000000727956541596094352_);" d="M513.69,398.73
				c2.8,0.39,8.05,2.02,7.75,10.63c-0.86-0.1-2.67,0.02-3.93,0.2C519.81,406.01,517.12,400.83,513.69,398.73z"/>
			
				<linearGradient id="SVGID_00000146491833270098436550000014110287037284513419_" gradientUnits="userSpaceOnUse" x1="519.069" y1="416.3369" x2="525.8341" y2="416.3369">
				<stop  offset="0" style="stop-color:#FFFFC3"/>
				<stop  offset="0" style="stop-color:#C59528"/>
				<stop  offset="0.2279" style="stop-color:#FFEEA9"/>
				<stop  offset="0.414" style="stop-color:#FECE61"/>
				<stop  offset="0.586" style="stop-color:#FFFFD0"/>
				<stop  offset="0.7721" style="stop-color:#C2A262"/>
				<stop  offset="1" style="stop-color:#D4B578"/>
			</linearGradient>
			<path style="fill:url(#SVGID_00000146491833270098436550000014110287037284513419_);" d="M519.07,411.96
				c3.12,2.03,5.85,4.4,6.77,8.75c-1.94-1.21-3.79-1.78-5.55-1.74c0.19-0.18,0.37-0.38,0.52-0.58
				C522.41,416.18,520.84,413.8,519.07,411.96z"/>
			
				<linearGradient id="SVGID_00000043419399502745293240000015321213369835813772_" gradientUnits="userSpaceOnUse" x1="503.0732" y1="410.4071" x2="515.5549" y2="410.4071">
				<stop  offset="0" style="stop-color:#DDBC75"/>
				<stop  offset="0" style="stop-color:#D3A84B"/>
				<stop  offset="0.2279" style="stop-color:#CEAF6F"/>
				<stop  offset="0.414" style="stop-color:#C79D38"/>
				<stop  offset="0.586" style="stop-color:#CBA043"/>
				<stop  offset="0.7721" style="stop-color:#8D5B00"/>
				<stop  offset="1" style="stop-color:#FFEA8E"/>
			</linearGradient>
			<path style="fill:url(#SVGID_00000043419399502745293240000015321213369835813772_);" d="M511.88,424.89
				c1.02-6.71,0.21-13.14-2.65-19.32c-2.1-4.54-4.11-9.12-6.16-13.67c2.41-0.74,4.63-1.07,6.57-1.03c-0.96,1.51-1.22,3.38-0.98,5.43
				c0.64,5.98,4.09,10.49,5.8,15.98c0.56,1.74,1.18,3.58,0.98,5.45c-0.11,1.02-0.06,1.97,0.11,2.86c-0.2,0.13-0.4,0.27-0.59,0.42
				c-3.21,2.42-2.57,5.67-1.68,8.94C513.04,430.02,511.73,425.91,511.88,424.89z"/>
			
				<linearGradient id="SVGID_00000100342984799482683830000012878465336126924443_" gradientUnits="userSpaceOnUse" x1="479.5143" y1="405.3904" x2="497.525" y2="405.3904">
				<stop  offset="0" style="stop-color:#DDBC75"/>
				<stop  offset="0" style="stop-color:#D3A84B"/>
				<stop  offset="0.2279" style="stop-color:#CEAF6F"/>
				<stop  offset="0.414" style="stop-color:#C79D38"/>
				<stop  offset="0.586" style="stop-color:#CBA043"/>
				<stop  offset="0.7721" style="stop-color:#8D5B00"/>
				<stop  offset="1" style="stop-color:#FFEA8E"/>
			</linearGradient>
			<path style="fill:url(#SVGID_00000100342984799482683830000012878465336126924443_);" d="M492.91,423.04
				c-0.81-3.2-1.52-6.35-1.71-9.53c-0.42-6.96-3.79-12.54-7.77-17.91c-1.31-1.77-2.61-3.56-3.91-5.35c2.38-1.36,4.87-2.2,7.22-2.52
				c-0.36,8.32,5.12,15.28,8.6,22.89c0.98,2.08,1.71,4.24,2.19,6.46C495.65,418.44,494.17,420.5,492.91,423.04z"/>
			
				<linearGradient id="SVGID_00000054249050513927851260000006206581445146635413_" gradientUnits="userSpaceOnUse" x1="451.1848" y1="411.8871" x2="475.134" y2="411.8871">
				<stop  offset="0" style="stop-color:#DDBC75"/>
				<stop  offset="0" style="stop-color:#D3A84B"/>
				<stop  offset="0.2279" style="stop-color:#CEAF6F"/>
				<stop  offset="0.414" style="stop-color:#C79D38"/>
				<stop  offset="0.586" style="stop-color:#CBA043"/>
				<stop  offset="0.7721" style="stop-color:#8D5B00"/>
				<stop  offset="1" style="stop-color:#FFEA8E"/>
			</linearGradient>
			<path style="fill:url(#SVGID_00000054249050513927851260000006206581445146635413_);" d="M463.31,408.32
				c-0.07-0.62-0.69-1.17-1.06-1.76c-0.56,0.37-2.62,2.75-3.09,3.59c-2.78-0.86-5.38-1.66-7.98-2.46c0.97-1.62,1.88-3.14,2.78-4.65
				c1.91-3.19,4.2-6.04,6.9-8.49c-0.15,0.58-0.22,1.19-0.18,1.84c0.03,2.99,2.58,4.71,4.5,6.75c2.56,2.72,3.65,6.37,4.25,9.94
				c0.35,1.93,1.27,3.63,2.56,4.96c-0.52,2.34-0.03,4.72,1.65,7.13c0.71,1.02,0.9,2.4,1.48,4.06c-1.11-0.39-1.76-0.51-2.29-0.84
				c-6.07-3.73-9.19-9.22-9.57-16.29C463.2,410.84,463.45,409.56,463.31,408.32z"/>
			<path class="st30" d="M516.63,427.06c-0.12-0.35-0.25-0.7-0.34-1.06c-0.51-2.07,0.14-3.12,2.21-3.55
				c1.83-0.38,3.92-0.48,4.82,1.28c0.8,1.56,1.3,3.74,0.86,5.36c-1.03,3.82-3.72,6.66-7.06,9
				C519.05,434.25,517.89,430.65,516.63,427.06z"/>
			<path class="st30" d="M497.96,426.04c-1.56-3.73,1.82-6.6,4.76-6.87c0.98-0.09,2.63,0.62,2.96,1.4c0.78,1.81,1.43,3.91,1.27,5.83
				c-0.42,5.28-3.92,8.71-8.37,12.17C499.89,433.9,499.56,429.88,497.96,426.04z"/>
			<path class="st30" d="M478.79,426.12c-0.78-1.49-1.48-3.07-1.94-4.68c-0.71-2.49,0.62-4.98,3.07-6.21
				c2.08-1.05,3.87-0.68,5.63,1.56c3.42,4.35,4.06,9.47,3.31,14.73c-0.23,1.64-1.26,3.35-2.38,4.63c-1.19,1.36-2.93,2.25-4.43,3.35
				c-0.18-0.15-0.36-0.3-0.54-0.45C482.65,434.28,480.91,430.17,478.79,426.12z"/>
			<path class="st76" d="M516.63,427.06c-0.12-0.35-0.25-0.7-0.34-1.06c-0.41-1.67-0.07-2.68,1.17-3.23
				c-0.08,0.43-0.05,0.85,0.08,1.17c1.14,3.32,2.88,6.5,2.43,9.99c-0.06,0.87-0.26,1.66-0.57,2.39c-0.71,0.62-1.48,1.21-2.28,1.77
				C519.05,434.25,517.89,430.65,516.63,427.06z"/>
			<path class="st76" d="M497.96,426.04c-1.3-3.12,0.85-5.64,3.31-6.54c-1.7,2.44-0.73,6.3-0.04,9.19c0.55,2.32,0.52,4.64-0.48,6.8
				c-0.42,0.9-0.91,1.73-1.44,2.51c-0.24,0.19-0.48,0.38-0.72,0.57C499.89,433.9,499.56,429.88,497.96,426.04z"/>
			<path class="st76" d="M480.26,420.22c2.23,5.4,5.8,10.68,3.48,16.53c-0.32,0.79-0.68,1.56-1.07,2.31
				c-0.21,0.14-0.42,0.29-0.63,0.44c-0.18-0.15-0.36-0.3-0.54-0.45c1.15-4.77-0.59-8.88-2.71-12.93c-0.78-1.49-1.48-3.07-1.94-4.68
				c-0.71-2.49,0.62-4.98,3.07-6.21c0.42-0.21,0.83-0.36,1.23-0.46c-0.09,0.08-0.17,0.17-0.24,0.25
				C479.59,416.55,479.55,418.45,480.26,420.22z"/>
			
				<linearGradient id="SVGID_00000106106421390280487540000014095998114323852473_" gradientUnits="userSpaceOnUse" x1="593.25" y1="357.8376" x2="613.3704" y2="357.8376">
				<stop  offset="0" style="stop-color:#FFFFC3"/>
				<stop  offset="0" style="stop-color:#C59528"/>
				<stop  offset="0.2279" style="stop-color:#FFEEA9"/>
				<stop  offset="0.414" style="stop-color:#FECE61"/>
				<stop  offset="0.586" style="stop-color:#FFFFD0"/>
				<stop  offset="0.7721" style="stop-color:#C2A262"/>
				<stop  offset="1" style="stop-color:#D4B578"/>
			</linearGradient>
			<path style="fill:url(#SVGID_00000106106421390280487540000014095998114323852473_);" d="M613.37,358.81
				c-2.07,2.72-6.01,4.97-8.43,4.32c-3.94-1.05-7.78-2.47-11.69-3.74c2.4-2.29,4.79-4.57,7.3-6.96
				C602.78,358.91,608.71,357.54,613.37,358.81z"/>
			
				<linearGradient id="SVGID_00000107549391609273150160000014643761864259052446_" gradientUnits="userSpaceOnUse" x1="598.8906" y1="360.3146" x2="613.3704" y2="360.3146">
				<stop  offset="0" style="stop-color:#DDBC75"/>
				<stop  offset="0" style="stop-color:#D3A84B"/>
				<stop  offset="0.2279" style="stop-color:#CEAF6F"/>
				<stop  offset="0.414" style="stop-color:#C79D38"/>
				<stop  offset="0.586" style="stop-color:#CBA043"/>
				<stop  offset="0.7721" style="stop-color:#8D5B00"/>
				<stop  offset="1" style="stop-color:#FFEA8E"/>
			</linearGradient>
			<path style="fill:url(#SVGID_00000107549391609273150160000014643761864259052446_);" d="M605.41,357.4c0,0,0.01-0.01,0.01-0.01
				c2.49,0.82,5.41,0.73,7.95,1.42c-2.07,2.72-6.01,4.97-8.43,4.32c-2.03-0.54-4.04-1.18-6.05-1.85
				C601.47,360.8,603.83,359.63,605.41,357.4z"/>
			<path class="st30" d="M617.99,336.24c3.9-3.31,3.87-3.27,8.33-0.68c3.09,1.8,4.85,4.51,5.89,7.26c-3.2-0.56-6.41-1.12-9.62-1.69
				c-0.36-0.06-0.71-0.2-1.05-0.34c-2.02-0.8-4.03-1.61-6.15-2.45C616.16,337.72,617.09,337,617.99,336.24z"/>
			<path class="st30" d="M649.81,304.33c-2.15-2.13-3.99-3.94-5.89-5.82c1.63-1.19,2.9-2.12,4.31-3.15
				C648.76,298.36,649.23,301.04,649.81,304.33z"/>
			<path class="st30" d="M626.54,304.24c-1.41,0.05-2.55,0.1-4.17,0.16c0.18-2.06,0.34-3.86,0.5-5.66c0.22,0,0.43-0.01,0.65-0.01
				C624.48,300.47,625.44,302.22,626.54,304.24z"/>
			<path class="st30" d="M632.31,327.06c2.51,0.75,4.13,2.48,5.3,4.79c-2.19,0.1-4.14-0.06-5.97,0.34c-2.41,0.53-4.09-0.51-6.26-2.1
				C628.05,329.13,629.28,326.16,632.31,327.06z"/>
			<path class="st30" d="M606.79,349.93c-0.54-1.89,0.5-4.26,2.27-5.01c4.14-1.77,8.08-2.27,11.94,1.09
				c3.36,2.92,5.56,6.38,6.98,10.43c-2.72-1.21-5.11-2.73-7.71-3.32c-2.98-0.68-6.15-0.63-9.24-0.75
				C609.11,352.29,607.39,352.02,606.79,349.93z"/>
			<path class="st76" d="M615.68,338.1c5.04,0.1,10.06,1.68,14.35,4.34c-2.48-0.43-4.96-0.87-7.44-1.31
				c-0.36-0.06-0.71-0.2-1.05-0.34c-2.02-0.8-4.03-1.61-6.15-2.45C615.48,338.26,615.58,338.18,615.68,338.1z"/>
			<path class="st76" d="M627.3,328.99c2.58,0.6,5.07,1.63,7.41,2.92c-1.07,0.02-2.09,0.07-3.07,0.29c-2.41,0.53-4.09-0.51-6.26-2.1
				C626.1,329.83,626.72,329.42,627.3,328.99z"/>
			<path class="st76" d="M606.7,349.51c3.77-0.33,7.54-0.65,11.43,0.18c3.96,0.94,6.87,3.72,9.77,6.52
				c0.03,0.07,0.05,0.15,0.08,0.22c-2.72-1.21-5.11-2.73-7.71-3.32c-2.98-0.68-6.15-0.63-9.24-0.75c-1.91-0.07-3.63-0.34-4.23-2.43
				C606.75,349.79,606.72,349.65,606.7,349.51z"/>
			<path class="st30" d="M569.96,307.23c2.74,1.77,5.82,2.52,9.12,2.44c2-0.05,4.01,0.07,6.01,0.14c8.12,0.3,16.03-0.98,23.54-3.94
				c2.51-0.99,4.12-0.42,6.18,0.92c-6.84,2.84-13.62,5.18-20.75,6.19c-5.18,0.74-10.34,2.01-15.67,1.05
				c-0.65-0.12-1.88,0.89-2.24,1.66c-0.62,1.31-0.77,2.85-1.12,4.29c-0.21,0.08-2.61-4.73-3.67-7.19c-0.33-0.78-0.88-1.47-1.32-2.2
				c-0.81,0.67-3.87,7.16-2.6,9.83c-5.03-3.72-8.24-8.33-7.59-15.1c-2.41,1.75-2.17,4.45-2.89,7.11c-2.29-5.02-2.03-9.99-1.83-14.93
				c0.01-0.35,0.57-0.95,0.89-0.96c0.47-0.01,1.08,0.28,1.41,0.65c0.94,1.03,1.6,2.4,2.69,3.21
				C563.3,302.8,566.6,305.07,569.96,307.23z"/>
			<path class="st79" d="M603,310.55c-1.51,0.1-2.81,0.48-4.22,0.5c-5.81,0.09-10.82,0.89-16.61,0.82c-3.73,0-7.32,0.19-10.53-2.05
				c-0.46-0.24-1.48-0.06-1.62-0.25c-2.19-2.99-6.07-5.17-9.71-4.66c0.18-1.71-1.05-2.81-2.22-3.82c-0.37-0.31-1.01-0.41-1.34,0.12
				c-0.54,0.83-0.79,1.87-1.03,2.9c0.04,0.26,0.06,0.67-0.06,0.9c-0.13,0.86-0.2,1.75-0.2,2.64c-0.64-3.4-0.47-6.78-0.34-10.15
				c0.01-0.35,0.57-0.95,0.89-0.96c0.47-0.01,1.08,0.28,1.41,0.65c0.94,1.03,1.6,2.4,2.69,3.21c3.2,2.39,6.5,4.66,9.86,6.82
				c2.74,1.77,5.82,2.52,9.12,2.44c2-0.05,4.01,0.07,6.01,0.14c8.12,0.3,16.03-0.98,23.54-3.94c2.51-0.99,4.12-0.42,6.18,0.92
				c-3.63,1.51-7.25,2.88-10.91,3.98C603.64,310.57,603.28,310.5,603,310.55z"/>
			
				<linearGradient id="SVGID_00000150092989420540365770000006046957846739937955_" gradientUnits="userSpaceOnUse" x1="506.8128" y1="332.6089" x2="669.389" y2="332.6089">
				<stop  offset="0" style="stop-color:#FFFFC3"/>
				<stop  offset="0" style="stop-color:#C59528"/>
				<stop  offset="0.2279" style="stop-color:#FFEEA9"/>
				<stop  offset="0.414" style="stop-color:#FECE61"/>
				<stop  offset="0.586" style="stop-color:#FFFFD0"/>
				<stop  offset="0.7721" style="stop-color:#C2A262"/>
				<stop  offset="1" style="stop-color:#D4B578"/>
			</linearGradient>
			<path style="fill:url(#SVGID_00000150092989420540365770000006046957846739937955_);" d="M603.28,340.68
				c-7.95,8.7-17.01,16.12-26.49,23.07c-10.63,7.79-22.18,9.4-34.34,4.63c-7.29-2.86-13.84-7.3-19.53-12.66
				c-8.42-7.93-13.25-18.03-15.71-29.2c-1.12-5.09,0.31-10.02,2.56-15.25c0.17,2.78,0.68,5.04,0.36,7.19
				c-0.62,4.16,0.65,7.87,1.94,12.23c0.3-2.91,0.29-5.29,0.86-7.51c0.57-2.26,1.57-4.45,2.64-6.54c1.1-2.17,2.44-4.23,3.78-6.25
				c1.26-1.89,2.67-3.69,3.99-5.49c-0.63,3.08-1.65,6.02-1.75,8.98c-0.32,8.95,0.9,17.39,6.41,25.13
				c4.81,6.76,10.24,12.48,17.56,16.33c1.83,0.96,6.06,1.83,6.19,1.61c-0.51-0.45-10.99-9.12-13.88-14.74
				c-2.67-5.2-4.87-10.52-4.97-16.46c-0.12-6.99,2.95-12.76,7.22-18c1.5-1.85,4.35-2.46,5.96-0.94c1.5,1.42,3.16,3.27,3.56,5.18
				c2.14,10.46,8.61,17.69,16.81,23.79c2.86,2.13,5.98,3.52,9.53,4.04c2.12,0.31,5.8,0.22,5.29,0.06c-5.54-1.75-9.94-5.03-13.72-9.9
				c2,0.11,3.48,0.24,4.96,0.27c7.42,0.17,14.37-1.73,21.14-4.64c9.83-4.22,19.8-8.11,27.83-15.55c0.49-0.45,1.48-0.58,2.21-0.52
				c6.37,0.56,12.02-0.52,15.77-6.41c0.69-1.08,1.63-2,2.56-3.12c0.8,0.89,1.32,1.64,2.01,2.18c1.74,1.35,6.12,6.03,8.5,5.62
				c-0.09-0.9-0.34-3.65-0.54-4.53c-0.63-2.79-1.33-5.56-2-8.37c6.86-1.79,13.13,0.03,19.41,0.71c-1.24,2.15-2.3,4.29-3.64,6.24
				c-1.79,2.61-3.48,5.4-5.76,7.53c-3.16,2.96-7.42,3.51-11.62,3.84c-11.39,0.89-22.2,3.91-32.43,8.95
				c-3.06,1.51-6.24,3.08-7.56,6.87c5.21-3.48,11.09-4.66,16.92-6.04c-1.4,1.28-2.86,2.39-4.36,3.44
				C614.73,330.78,608.45,335.03,603.28,340.68z"/>
			
				<linearGradient id="SVGID_00000032621715567583740360000015347516280522644624_" gradientUnits="userSpaceOnUse" x1="598.3843" y1="311.7908" x2="646.6835" y2="311.7908">
				<stop  offset="0" style="stop-color:#DDBC75"/>
				<stop  offset="0" style="stop-color:#D3A84B"/>
				<stop  offset="0.2279" style="stop-color:#CEAF6F"/>
				<stop  offset="0.414" style="stop-color:#C79D38"/>
				<stop  offset="0.586" style="stop-color:#CBA043"/>
				<stop  offset="0.7721" style="stop-color:#8D5B00"/>
				<stop  offset="1" style="stop-color:#FFEA8E"/>
			</linearGradient>
			<path style="fill:url(#SVGID_00000032621715567583740360000015347516280522644624_);" d="M616.17,318.56
				c-2.01,1.18-9.37,3.27-10.78,3.3c-2.5,0.23-4.8,0.87-7,1.72c8.24-3.54,16.35-7.28,23.09-13.52c0.49-0.45,1.48-0.58,2.21-0.52
				c6.37,0.56,12.02-0.52,15.77-6.41c0.69-1.08,1.63-2,2.56-3.12c0.8,0.89,1.32,1.64,2.01,2.18c0.62,0.48,1.58,1.39,2.67,2.34
				c-4.22,2.29-8.23,5.14-12.74,7.35C631.7,312.94,618.62,317.2,616.17,318.56z"/>
			
				<linearGradient id="SVGID_00000097482217953860707790000013723127318483651236_" gradientUnits="userSpaceOnUse" x1="649.9802" y1="298.169" x2="669.389" y2="298.169">
				<stop  offset="0" style="stop-color:#DDBC75"/>
				<stop  offset="0" style="stop-color:#D3A84B"/>
				<stop  offset="0.2279" style="stop-color:#CEAF6F"/>
				<stop  offset="0.414" style="stop-color:#C79D38"/>
				<stop  offset="0.586" style="stop-color:#CBA043"/>
				<stop  offset="0.7721" style="stop-color:#8D5B00"/>
				<stop  offset="1" style="stop-color:#FFEA8E"/>
			</linearGradient>
			<path style="fill:url(#SVGID_00000097482217953860707790000013723127318483651236_);" d="M658.29,300.67
				c-2.34,0.21-4.5,0.76-6.56,1.52c-0.56-2.42-1.16-4.84-1.75-7.28c6.86-1.79,13.13,0.03,19.41,0.71c-1.24,2.15-2.3,4.29-3.64,6.24
				c-0.04,0.06-0.08,0.12-0.12,0.18C663.4,300.87,660.74,300.46,658.29,300.67z"/>
			
				<linearGradient id="SVGID_00000145035329682735728120000008536505550215655833_" gradientUnits="userSpaceOnUse" x1="532.8942" y1="331.0831" x2="554.6227" y2="331.0831">
				<stop  offset="0" style="stop-color:#DDBC75"/>
				<stop  offset="0" style="stop-color:#D3A84B"/>
				<stop  offset="0.2279" style="stop-color:#CEAF6F"/>
				<stop  offset="0.414" style="stop-color:#C79D38"/>
				<stop  offset="0.586" style="stop-color:#CBA043"/>
				<stop  offset="0.7721" style="stop-color:#8D5B00"/>
				<stop  offset="1" style="stop-color:#FFEA8E"/>
			</linearGradient>
			<path style="fill:url(#SVGID_00000145035329682735728120000008536505550215655833_);" d="M546.13,317.37
				c-2.35-0.09-4.58,1.37-5.73,4.38c-0.86,2.25-0.83,4.74-0.67,7.15c0.33,5.01,0.97,9.92,3,14.54c1.05,2.4,2.36,4.68,3.8,6.86
				c1.12,1.69,2.68,4.81,4.39,5.92c-0.02-0.01-0.04-0.03-0.07-0.04c-2.68-2.3-10.55-9.23-12.99-13.98
				c-2.67-5.2-4.87-10.52-4.97-16.46c-0.12-6.99,2.95-12.76,7.22-18c1.5-1.85,4.35-2.46,5.96-0.94c1.5,1.42,3.16,3.27,3.56,5.18
				c0.93,4.52,2.66,8.44,4.99,11.92c-1.32-1.4-2.61-2.83-3.9-4.24C549.34,318.19,547.71,317.43,546.13,317.37z"/>
			
				<linearGradient id="SVGID_00000098920306026736026730000015521326055804998335_" gradientUnits="userSpaceOnUse" x1="506.8128" y1="337.9808" x2="592.3046" y2="337.9808">
				<stop  offset="0" style="stop-color:#DDBC75"/>
				<stop  offset="0" style="stop-color:#D3A84B"/>
				<stop  offset="0.2279" style="stop-color:#CEAF6F"/>
				<stop  offset="0.414" style="stop-color:#C79D38"/>
				<stop  offset="0.586" style="stop-color:#CBA043"/>
				<stop  offset="0.7721" style="stop-color:#8D5B00"/>
				<stop  offset="1" style="stop-color:#FFEA8E"/>
			</linearGradient>
			<path style="fill:url(#SVGID_00000098920306026736026730000015521326055804998335_);" d="M507.2,326.53
				c-1.12-5.09,0.31-10.02,2.56-15.25c0.17,2.78,0.68,5.04,0.36,7.19c-0.62,4.16,0.65,7.87,1.94,12.23c0.3-2.91,0.29-5.29,0.86-7.51
				c0.57-2.26,1.57-4.45,2.64-6.54c1.1-2.17,2.44-4.23,3.78-6.25c1.26-1.89,2.67-3.69,3.99-5.49c-0.63,3.08-1.65,6.02-1.75,8.98
				c-0.32,8.95,0.9,17.39,6.41,25.13c3.69,5.18,7.73,9.75,12.72,13.33c-1.73-0.73-3.41-1.76-5.01-2.62c-2.76-1.48-5-4.18-7.3-6.28
				c-4.16-3.78-6.53-9.23-10.78-12.77c-0.12-0.1-0.52,4.07-0.46,4.51c0.25,1.78,0.88,3.58,1.53,5.25c2.13,5.48,5.85,10.32,10.5,13.9
				c-2.02,0.18-3.69-1.32-5.54-1.69c2.23,3.25,5.75,5.12,9.11,6.96c6.78,3.79,14.51,4.16,22.5,4.49
				c12.75,0.57,23.07-6.11,34.08-11.44c0.98-0.44,1.96-0.87,2.97-1.26c-4.96,4.36-10.17,8.43-15.51,12.35
				c-10.63,7.79-22.18,9.4-34.34,4.63c-7.29-2.86-13.84-7.3-19.53-12.66C514.49,347.79,509.67,337.7,507.2,326.53z"/>
			
				<linearGradient id="SVGID_00000062192222513252442980000001441091781647977125_" gradientUnits="userSpaceOnUse" x1="567.5371" y1="325.8775" x2="614.2422" y2="325.8775">
				<stop  offset="0" style="stop-color:#DDBC75"/>
				<stop  offset="0" style="stop-color:#D3A84B"/>
				<stop  offset="0.2279" style="stop-color:#CEAF6F"/>
				<stop  offset="0.414" style="stop-color:#C79D38"/>
				<stop  offset="0.586" style="stop-color:#CBA043"/>
				<stop  offset="0.7721" style="stop-color:#8D5B00"/>
				<stop  offset="1" style="stop-color:#FFEA8E"/>
			</linearGradient>
			<path style="fill:url(#SVGID_00000062192222513252442980000001441091781647977125_);" d="M604.82,322.85
				c-6.2,2.93-12.35,5.8-18.87,8.09c-4.36,1.53-9.39,2.72-14.05,2.21c-0.49-0.08,0.18,0.44-0.24,0.46c0.71,0.86,1.42,1.71,2.16,2.55
				c-2.3-1.66-4.37-3.72-6.29-6.18c2,0.11,3.48,0.24,4.96,0.27c7.42,0.17,14.37-1.73,21.14-4.64c7.05-3.03,14.17-5.89,20.6-10.01
				c-0.04,0.05-0.08,0.11-0.12,0.16C611.58,318.76,608.5,321.02,604.82,322.85z"/>
			<path class="st30" d="M585.63,323c-7.85,2.33-15.68,4.37-23.25-1.02c-1.48-1.06-1.94-2.17-1.85-3.97
				c6.42,5.49,6.76,5.7,9.38,5.85c-0.03-1.67-0.07-3.33-0.11-5.4c2.71,2.41,5,4.64,8.19,5.58c-0.2-2.85-0.39-5.42-0.57-8.02
				c5.83,0.91,11,0.67,16.09-0.54c5-1.19,9.95-2.6,15.21-3.98c-1.14,0.68-2.03,1.21-2.91,1.75
				C599.39,317.14,592.88,320.85,585.63,323z"/>
			<path class="st79" d="M569.9,323.86c-0.01-0.26-0.01-0.52-0.02-0.78c1.84,1.32,4.3,2.26,5.98,0.57c0.08-0.12,0.11-0.26,0.1-0.42
				c0.64,0.33,1.31,0.6,2.02,0.81c-0.05-0.64-0.09-1.27-0.13-1.89c0.39,0.18,0.77,0.32,1.11,0.24c8.34-1.94,16.54-4.64,23.8-9.23
				c0.05-0.03,0.09-0.07,0.14-0.11c1.91-0.51,3.84-1.04,5.82-1.56c-1.14,0.68-2.03,1.21-2.91,1.75c-6.41,3.9-12.93,7.61-20.18,9.76
				c-6.54,1.94-13.06,3.68-19.44,1.09c0.49-0.15,0.96-0.36,1.38-0.67C568.31,323.74,568.96,323.8,569.9,323.86z"/>
			
				<linearGradient id="SVGID_00000057831249918861364830000003031757569068989106_" gradientUnits="userSpaceOnUse" x1="539.3991" y1="248.4191" x2="584.6213" y2="248.4191">
				<stop  offset="0" style="stop-color:#FFFFC3"/>
				<stop  offset="0" style="stop-color:#C59528"/>
				<stop  offset="0.2279" style="stop-color:#FFEEA9"/>
				<stop  offset="0.414" style="stop-color:#FECE61"/>
				<stop  offset="0.586" style="stop-color:#FFFFD0"/>
				<stop  offset="0.7721" style="stop-color:#C2A262"/>
				<stop  offset="1" style="stop-color:#D4B578"/>
			</linearGradient>
			<path style="fill:url(#SVGID_00000057831249918861364830000003031757569068989106_);" d="M543.43,250.54
				c-1.5,1.05-2.77,2.39-4.03,3.73c1.4-3.96,4.79-6.98,8.62-8.71c3.83-1.72,8.08-2.28,12.27-2.47s8.4-0.03,12.58-0.43
				c0.71-0.07,1.42-0.15,2.12-0.06c0.88,0.11,1.7,0.48,2.51,0.85c2.66,1.21,5.45,2.52,7.12,4.92c-6.17-1.79-12.54-3.03-18.96-3.15
				c-6.43-0.12-12.92,0.9-18.81,3.47C545.66,249.22,544.49,249.8,543.43,250.54z"/>
		</g>
	</g>
</g>
</svg>
