<svg width="23" height="18" viewBox="0 0 23 18" fill="none" xmlns="http://www.w3.org/2000/svg">
<path d="M22.2996 2.14324C21.501 2.49822 20.6416 2.73767 19.7398 2.84482C20.6605 2.29361 21.3665 1.42048 21.6995 0.378909C20.8383 0.889995 19.8849 1.26085 18.8693 1.46105C18.0566 0.594985 16.8982 0.053472 15.6163 0.053472C13.1552 0.053472 11.1598 2.04887 11.1598 4.51037C11.1598 4.85918 11.1991 5.19917 11.2753 5.52593C7.57118 5.33984 4.28683 3.56581 2.08858 0.869269C1.70494 1.5272 1.48533 2.29272 1.48533 3.11029C1.48533 4.65633 2.27203 6.0207 3.46794 6.81974C2.73769 6.79637 2.05022 6.59573 1.44917 6.26191C1.44873 6.28043 1.44873 6.29939 1.44873 6.31835C1.44873 8.47735 2.98508 10.2783 5.02413 10.6884C4.65019 10.7898 4.2564 10.8445 3.84982 10.8445C3.56231 10.8445 3.28317 10.8167 3.01109 10.7642C3.57863 12.5347 5.22433 13.8237 7.17431 13.8594C5.64899 15.0549 3.72767 15.7675 1.63923 15.7675C1.27984 15.7675 0.924858 15.7463 0.57605 15.7049C2.54896 16.97 4.8914 17.7073 7.40802 17.7073C15.6061 17.7073 20.0886 10.9164 20.0886 5.02675C20.0886 4.8336 20.0846 4.6409 20.0763 4.44952C20.9467 3.82246 21.7026 3.03708 22.2996 2.14324Z" fill="#CDCDCD"/>
</svg>
